<svg width="24" height="14" viewBox="0 0 24 14" fill="none" xmlns="http://www.w3.org/2000/svg">
<path d="M0.474308 0.484988C0.790514 0.161663 1.1649 0 1.59747 0C2.0292 0 2.40316 0.161663 2.71937 0.484988L11.9842 9.95843L21.2806 0.452656C21.5758 0.150885 21.9447 0 22.3874 0C22.83 0 23.2095 0.161663 23.5257 0.484988C23.8419 0.808314 24 1.19113 24 1.63344C24 2.07489 23.8419 2.45727 23.5257 2.7806L12.8696 13.6443C12.7431 13.7737 12.6061 13.8655 12.4585 13.9198C12.3109 13.9733 12.1528 14 11.9842 14C11.8155 14 11.6574 13.9733 11.5099 13.9198C11.3623 13.8655 11.2253 13.7737 11.0988 13.6443L0.442688 2.74827C0.147563 2.4465 -3.12618e-07 2.07489 -3.12618e-07 1.63344C-3.12618e-07 1.19113 0.158102 0.808314 0.474308 0.484988Z" fill="#AA75FF"/>
</svg>
