<svg  viewBox="0 0 14 24" fill="none" xmlns="http://www.w3.org/2000/svg">
<path d="M13.515 23.5257C13.8383 23.2095 14 22.8351 14 22.4025C14 21.9708 13.8383 21.5968 13.515 21.2806L4.04157 12.0158L13.5473 2.71937C13.8491 2.42424 14 2.05534 14 1.61265C14 1.16996 13.8383 0.790514 13.515 0.474308C13.1917 0.158103 12.8089 0 12.3666 0C11.9251 0 11.5427 0.158103 11.2194 0.474308L0.355658 11.1304C0.226328 11.2569 0.134504 11.3939 0.0801855 11.5415C0.026729 11.6891 3.51413e-07 11.8472 3.51413e-07 12.0158C3.51413e-07 12.1845 0.026729 12.3426 0.0801855 12.4901C0.134504 12.6377 0.226328 12.7747 0.355658 12.9012L11.2517 23.5573C11.5535 23.8524 11.9251 24 12.3666 24C12.8089 24 13.1917 23.8419 13.515 23.5257Z" fill="#AA75FF"/>
</svg>
