<svg  viewBox="0 0 15 25" fill="none" xmlns="http://www.w3.org/2000/svg">
<path d="M1.26001 24.0257C0.936687 23.7095 0.775024 23.3351 0.775024 22.9025C0.775024 22.4708 0.936687 22.0968 1.26001 21.7806L10.7335 12.5158L1.22768 3.21937C0.92591 2.92424 0.775024 2.55534 0.775024 2.11265C0.775024 1.66996 0.936687 1.29051 1.26001 0.974308C1.58334 0.658103 1.96616 0.5 2.40847 0.5C2.84991 0.5 3.2323 0.658103 3.55562 0.974308L14.4194 11.6304C14.5487 11.7569 14.6405 11.8939 14.6948 12.0415C14.7483 12.1891 14.775 12.3472 14.775 12.5158C14.775 12.6845 14.7483 12.8426 14.6948 12.9901C14.6405 13.1377 14.5487 13.2747 14.4194 13.4012L3.52329 24.0573C3.22152 24.3524 2.84991 24.5 2.40847 24.5C1.96616 24.5 1.58334 24.3419 1.26001 24.0257Z" fill="#AA75FF"/>
</svg>
