<svg  viewBox="0 0 26 27" fill="none" xmlns="http://www.w3.org/2000/svg">
<path d="M2.884 25.75H13C15.4723 25.75 17.889 25.0169 19.9446 23.6434C22.0002 22.2699 23.6024 20.3176 24.5485 18.0335C25.4946 15.7495 25.7421 13.2361 25.2598 10.8114C24.7775 8.38661 23.587 6.15933 21.8388 4.41117C20.0907 2.66301 17.8634 1.4725 15.4386 0.990189C13.0139 0.507874 10.5005 0.755416 8.21646 1.70151C5.93238 2.64761 3.98015 4.24976 2.60663 6.30538C1.23311 8.36099 0.5 10.7777 0.5 13.25V23.366C0.5 23.9983 0.75117 24.6047 1.19826 25.0517C1.64534 25.4988 2.25172 25.75 2.884 25.75ZM13 22.83H3.42V13.25C3.42 11.3553 3.98186 9.50306 5.03452 7.92764C6.08718 6.35222 7.58338 5.12433 9.33389 4.39924C11.0844 3.67415 13.0106 3.48444 14.869 3.85408C16.7273 4.22373 18.4343 5.13613 19.7741 6.47592C21.1139 7.81571 22.0263 9.5227 22.3959 11.381C22.7656 13.2394 22.5758 15.1656 21.8508 16.9161C21.1257 18.6666 19.8978 20.1628 18.3224 21.2155C16.7469 22.2681 14.8947 22.83 13 22.83Z" fill="rgb(170,117,255)" stroke="rgb(170,117,255)"/>
</svg>
