<svg  viewBox="0 0 19 21"  xmlns="http://www.w3.org/2000/svg">
<path d="M3.97675 16.9584C3.66751 16.7546 3.40157 16.4948 3.09027 16.127C2.92868 15.9315 2.76856 15.7349 2.60992 15.5371C2.13266 14.9512 1.83167 14.6812 1.52037 14.5701C1.26298 14.4788 1.05284 14.2901 0.93618 14.0456C0.819517 13.8011 0.805888 13.5208 0.898292 13.2664C0.990695 13.012 1.18156 12.8043 1.4289 12.689C1.67624 12.5737 1.9598 12.5602 2.21719 12.6515C2.99234 12.9266 3.51701 13.4004 4.22414 14.2695C4.12724 14.1503 4.5746 14.7046 4.67047 14.8187C4.86632 15.05 5.01063 15.1906 5.12402 15.265C5.3343 15.4046 5.72909 15.4647 6.30942 15.4077C6.33313 15.0184 6.40632 14.6404 6.51764 14.292C3.45826 13.5522 1.72653 11.602 1.72653 7.77504C1.72653 6.5116 2.10792 5.3745 2.81711 4.42081C2.59239 3.50991 2.62641 2.40847 3.12841 1.16847C3.18538 1.0282 3.2732 0.902217 3.38552 0.799652C3.49784 0.697087 3.63184 0.620507 3.7778 0.575464C3.8613 0.55101 3.90871 0.539802 3.99221 0.527575C4.81993 0.40225 5.98885 0.700789 7.51236 1.64429C8.42027 1.43448 9.34969 1.32918 10.2821 1.33047C11.2222 1.33047 12.1561 1.43644 13.0487 1.64429C14.5712 0.693657 15.7422 0.395118 16.5761 0.527575C16.6637 0.540821 16.7379 0.558143 16.8008 0.578521C16.9439 0.625163 17.0749 0.70225 17.1846 0.804353C17.2943 0.906457 17.3801 1.03109 17.4358 1.16949C17.9378 2.40847 17.9718 3.50991 17.7471 4.41979C18.4593 5.37348 18.8376 6.50345 18.8376 7.77504C18.8376 11.6031 17.1121 13.5471 14.0527 14.2879C14.1816 14.7107 14.2486 15.1835 14.2486 15.694C14.2487 16.6164 14.2445 17.5389 14.2362 18.4613C14.4677 18.5112 14.6747 18.6384 14.8224 18.8216C14.9702 19.0047 15.0496 19.2325 15.0473 19.4667C15.045 19.7009 14.9611 19.9271 14.8098 20.1074C14.6585 20.2876 14.449 20.4109 14.2166 20.4563C13.0425 20.6886 12.1726 19.9143 12.1726 18.9025L12.1746 18.4481L12.1798 17.7297C12.1849 17.0084 12.187 16.3664 12.187 15.694C12.187 14.9838 11.9984 14.5202 11.7489 14.3083C11.0676 13.7275 11.4129 12.622 12.3055 12.5231C15.3639 12.1838 16.7761 11.0131 16.7761 7.77504C16.7761 6.80199 16.4545 5.99807 15.835 5.3256C15.7044 5.18422 15.6168 5.00936 15.5822 4.82105C15.5476 4.63273 15.5673 4.43859 15.6391 4.26084C15.8102 3.83901 15.8834 3.28575 15.7381 2.61633L15.7278 2.61939C15.2216 2.76101 14.5836 3.0677 13.8125 3.58633C13.6882 3.66973 13.5469 3.72526 13.3986 3.74902C13.2503 3.77278 13.0985 3.7642 12.9539 3.72388C12.0838 3.48575 11.1849 3.36611 10.2821 3.36828C9.36469 3.36828 8.45553 3.48953 7.61028 3.7249C7.4662 3.7649 7.31503 3.7734 7.16728 3.74982C7.01954 3.72625 6.87876 3.67115 6.75473 3.58836C5.97957 3.07178 5.33842 2.76611 4.82921 2.62346C4.68078 3.28881 4.75396 3.84003 4.92404 4.26084C4.996 4.43849 5.01589 4.63259 4.98143 4.82089C4.94698 5.0092 4.85957 5.18411 4.72922 5.3256C4.11384 5.99196 3.78811 6.81116 3.78811 7.77504C3.78811 11.007 5.20133 12.1849 8.24319 12.5231C9.13482 12.622 9.48117 13.7224 8.80394 14.3042C8.60603 14.4754 8.36173 15.05 8.36173 15.694V18.9035C8.36173 19.9082 7.50102 20.6611 6.34138 20.4604C6.10612 20.4196 5.8925 20.2992 5.73704 20.12C5.58158 19.9407 5.49393 19.7137 5.48906 19.4776C5.48419 19.2416 5.56241 19.0112 5.71035 18.8258C5.85829 18.6404 6.06676 18.5116 6.30015 18.4613V17.4526C5.36213 17.5147 4.58697 17.3629 3.97675 16.9584V16.9584Z"/>
</svg>
