<svg width="18" height="14" viewBox="0 0 18 14" fill="none" xmlns="http://www.w3.org/2000/svg">
<path fill-rule="evenodd" clip-rule="evenodd" d="M0 0.5C0 0.367392 0.0526785 0.240215 0.146447 0.146447C0.240215 0.0526785 0.367392 0 0.5 0H17.5C17.6326 0 17.7598 0.0526785 17.8536 0.146447C17.9473 0.240215 18 0.367392 18 0.5C18 0.632608 17.9473 0.759785 17.8536 0.853553C17.7598 0.947321 17.6326 1 17.5 1H0.5C0.367392 1 0.240215 0.947321 0.146447 0.853553C0.0526785 0.759785 0 0.632608 0 0.5ZM0 7C0 6.86739 0.0526785 6.74021 0.146447 6.64645C0.240215 6.55268 0.367392 6.5 0.5 6.5H17.5C17.6326 6.5 17.7598 6.55268 17.8536 6.64645C17.9473 6.74021 18 6.86739 18 7C18 7.13261 17.9473 7.25979 17.8536 7.35355C17.7598 7.44732 17.6326 7.5 17.5 7.5H0.5C0.367392 7.5 0.240215 7.44732 0.146447 7.35355C0.0526785 7.25979 0 7.13261 0 7ZM0 13.5C0 13.3674 0.0526785 13.2402 0.146447 13.1464C0.240215 13.0527 0.367392 13 0.5 13H17.5C17.6326 13 17.7598 13.0527 17.8536 13.1464C17.9473 13.2402 18 13.3674 18 13.5C18 13.6326 17.9473 13.7598 17.8536 13.8536C17.7598 13.9473 17.6326 14 17.5 14H0.5C0.367392 14 0.240215 13.9473 0.146447 13.8536C0.0526785 13.7598 0 13.6326 0 13.5Z" fill="rgb(61,61,61)"/>
</svg>
