<svg width="163" height="301" viewBox="0 0 163 301" fill="none" xmlns="http://www.w3.org/2000/svg">
<rect x="0.704773" y="2.59158" width="161.701" height="296.451" rx="23.0011" fill="#FCFCFC"/>
<rect x="4.72266" y="125.643" width="153.186" height="168.756" rx="18.3032" fill="white"/>
<rect x="17.7809" y="217.053" width="127.069" height="4.52025" rx="2.26013" fill="url(#paint0_linear_8_575)"/>
<g filter="url(#filter0_d_8_575)">
<circle cx="63.7372" cy="219.313" r="4.26928" fill="white"/>
</g>
<path d="M18.4278 214.021V210.05H20.1414C20.584 210.05 20.9263 210.139 21.1684 210.316C21.4143 210.494 21.5372 210.746 21.5372 211.071C21.5372 211.287 21.4861 211.468 21.384 211.616C21.2856 211.763 21.1495 211.875 20.9755 211.95C20.8052 212.026 20.618 212.064 20.4137 212.064L20.5102 211.928C20.7636 211.928 20.9811 211.967 21.1627 212.047C21.3481 212.123 21.4918 212.238 21.5939 212.393C21.6961 212.544 21.7471 212.733 21.7471 212.96C21.7471 213.297 21.6223 213.558 21.3726 213.743C21.1268 213.929 20.7542 214.021 20.2549 214.021H18.4278ZM18.8477 213.675H20.2492C20.5972 213.675 20.8639 213.617 21.0492 213.499C21.2346 213.378 21.3273 213.187 21.3273 212.926C21.3273 212.669 21.2346 212.482 21.0492 212.365C20.8639 212.244 20.5972 212.183 20.2492 212.183H18.8023V211.837H20.113C20.4308 211.837 20.6766 211.776 20.8506 211.655C21.0284 211.534 21.1173 211.355 21.1173 211.116C21.1173 210.874 21.0284 210.695 20.8506 210.577C20.6766 210.456 20.4308 210.396 20.113 210.396H18.8477V213.675ZM22.6204 214.021V209.811H23.0233V214.021H22.6204ZM25.3754 214.05C25.122 214.05 24.9007 214.003 24.7116 213.908C24.5224 213.813 24.3749 213.672 24.269 213.482C24.1669 213.293 24.1158 213.057 24.1158 212.773V211.043H24.5187V212.728C24.5187 213.045 24.5962 213.286 24.7513 213.448C24.9102 213.607 25.1315 213.687 25.4152 213.687C25.6232 213.687 25.8029 213.645 25.9542 213.562C26.1093 213.475 26.2265 213.35 26.306 213.187C26.3892 213.025 26.4308 212.83 26.4308 212.603V211.043H26.8337V214.021H26.4478V213.204L26.5102 213.352C26.4157 213.571 26.2681 213.743 26.0677 213.868C25.871 213.989 25.6402 214.05 25.3754 214.05ZM29.2217 214.05C28.9115 214.05 28.6392 213.985 28.4046 213.857C28.1701 213.724 27.9867 213.545 27.8543 213.318C27.7219 213.087 27.6557 212.824 27.6557 212.529C27.6557 212.234 27.7181 211.973 27.8429 211.746C27.9715 211.519 28.1455 211.341 28.3649 211.213C28.5881 211.08 28.8378 211.014 29.1139 211.014C29.3938 211.014 29.6416 211.079 29.8572 211.207C30.0766 211.332 30.2487 211.51 30.3735 211.74C30.4983 211.967 30.5608 212.23 30.5608 212.529C30.5608 212.548 30.5589 212.569 30.5551 212.592C30.5551 212.61 30.5551 212.631 30.5551 212.654H27.9621V212.353H30.3395L30.1806 212.472C30.1806 212.257 30.1333 212.066 30.0388 211.899C29.948 211.729 29.8231 211.597 29.6643 211.502C29.5054 211.408 29.3219 211.36 29.1139 211.36C28.9096 211.36 28.7262 211.408 28.5635 211.502C28.4009 211.597 28.2741 211.729 28.1834 211.899C28.0926 212.07 28.0472 212.264 28.0472 212.484V212.546C28.0472 212.773 28.0964 212.974 28.1947 213.148C28.2968 213.318 28.4368 213.452 28.6146 213.55C28.7961 213.645 29.0023 213.692 29.233 213.692C29.4146 213.692 29.5829 213.66 29.738 213.596C29.8969 213.532 30.0331 213.433 30.1466 213.301L30.3735 213.562C30.2411 213.721 30.0747 213.842 29.8742 213.925C29.6775 214.008 29.46 214.05 29.2217 214.05Z" fill="#5A5A5A"/>
<path d="M138.309 214.021L140.023 210.231L140.148 210.412H137.691L137.901 210.214V211.156H137.498V210.049H140.414V210.339L138.752 214.021H138.309ZM142.47 214.055C142.119 214.055 141.822 213.977 141.58 213.822C141.337 213.664 141.154 213.437 141.029 213.142C140.904 212.843 140.842 212.485 140.842 212.069C140.842 211.619 140.918 211.243 141.069 210.94C141.224 210.634 141.438 210.403 141.71 210.248C141.982 210.093 142.298 210.015 142.658 210.015C142.835 210.015 143.006 210.032 143.168 210.066C143.331 210.1 143.475 210.155 143.599 210.231L143.435 210.56C143.333 210.492 143.216 210.444 143.083 210.418C142.951 210.388 142.811 210.373 142.663 210.373C142.236 210.373 141.894 210.509 141.636 210.781C141.383 211.053 141.256 211.46 141.256 212.001C141.256 212.084 141.26 212.188 141.267 212.313C141.279 212.434 141.302 212.555 141.336 212.676L141.194 212.568C141.235 212.372 141.317 212.205 141.438 212.069C141.559 211.929 141.71 211.823 141.892 211.751C142.073 211.68 142.272 211.644 142.487 211.644C142.752 211.644 142.985 211.693 143.185 211.791C143.386 211.889 143.543 212.028 143.656 212.205C143.77 212.383 143.826 212.593 143.826 212.835C143.826 213.081 143.768 213.297 143.651 213.482C143.533 213.664 143.371 213.805 143.163 213.907C142.958 214.006 142.728 214.055 142.47 214.055ZM142.453 213.709C142.642 213.709 142.809 213.675 142.953 213.607C143.1 213.535 143.216 213.435 143.299 213.306C143.382 213.174 143.424 213.02 143.424 212.846C143.424 212.585 143.333 212.377 143.151 212.222C142.973 212.067 142.731 211.99 142.425 211.99C142.221 211.99 142.043 212.028 141.892 212.103C141.74 212.179 141.621 212.283 141.534 212.415C141.447 212.544 141.404 212.691 141.404 212.858C141.404 213.002 141.443 213.14 141.523 213.272C141.602 213.401 141.72 213.507 141.875 213.59C142.033 213.669 142.226 213.709 142.453 213.709Z" fill="#5A5A5A"/>
<rect x="17.781" y="195.456" width="127.069" height="4.52025" rx="2.26013" fill="url(#paint1_linear_8_575)"/>
<g filter="url(#filter1_d_8_575)">
<circle cx="54.6965" cy="197.716" r="4.26928" fill="white"/>
</g>
<path d="M20.1697 192.458C19.8671 192.458 19.5872 192.409 19.3299 192.311C19.0765 192.209 18.8552 192.067 18.6661 191.885C18.4807 191.704 18.3351 191.49 18.2292 191.244C18.1271 190.998 18.076 190.73 18.076 190.439C18.076 190.147 18.1271 189.879 18.2292 189.633C18.3351 189.387 18.4826 189.173 18.6718 188.992C18.8609 188.81 19.0822 188.67 19.3356 188.572C19.5928 188.47 19.8728 188.419 20.1754 188.419C20.478 188.419 20.7541 188.466 21.0038 188.56C21.2572 188.655 21.4728 188.799 21.6506 188.992L21.3896 189.258C21.2232 189.092 21.0397 188.973 20.8392 188.901C20.6388 188.829 20.4231 188.793 20.1924 188.793C19.9465 188.793 19.7196 188.835 19.5115 188.918C19.3073 188.997 19.1276 189.113 18.9725 189.264C18.8212 189.412 18.702 189.586 18.615 189.786C18.5318 189.983 18.4902 190.2 18.4902 190.439C18.4902 190.673 18.5318 190.891 18.615 191.091C18.702 191.292 18.8212 191.467 18.9725 191.619C19.1276 191.766 19.3073 191.882 19.5115 191.965C19.7196 192.044 19.9446 192.084 20.1867 192.084C20.4137 192.084 20.6274 192.05 20.8279 191.982C21.0321 191.914 21.2194 191.798 21.3896 191.636L21.6279 191.953C21.4388 192.12 21.2175 192.247 20.9641 192.334C20.7106 192.417 20.4458 192.458 20.1697 192.458ZM21.2251 191.902V190.439H21.6279V191.953L21.2251 191.902ZM22.7312 192.424V189.446H23.117V190.257L23.0773 190.115C23.1605 189.888 23.3004 189.716 23.4971 189.599C23.6938 189.478 23.9378 189.417 24.2291 189.417V189.809C24.214 189.809 24.1988 189.809 24.1837 189.809C24.1686 189.805 24.1534 189.803 24.1383 189.803C23.8243 189.803 23.5785 189.9 23.4007 190.092C23.2229 190.282 23.134 190.552 23.134 190.904V192.424H22.7312ZM26.2018 192.453C25.8916 192.453 25.6193 192.388 25.3847 192.26C25.1502 192.127 24.9667 191.948 24.8343 191.721C24.702 191.49 24.6358 191.227 24.6358 190.932C24.6358 190.637 24.6982 190.376 24.823 190.149C24.9516 189.922 25.1256 189.744 25.345 189.616C25.5682 189.483 25.8178 189.417 26.094 189.417C26.3739 189.417 26.6217 189.482 26.8373 189.61C27.0567 189.735 27.2288 189.913 27.3536 190.143C27.4784 190.37 27.5408 190.633 27.5408 190.932C27.5408 190.951 27.539 190.972 27.5352 190.995C27.5352 191.013 27.5352 191.034 27.5352 191.057H24.9422V190.756H27.3196L27.1607 190.875C27.1607 190.66 27.1134 190.469 27.0188 190.302C26.9281 190.132 26.8032 190 26.6444 189.905C26.4855 189.811 26.302 189.763 26.094 189.763C25.8897 189.763 25.7063 189.811 25.5436 189.905C25.3809 190 25.2542 190.132 25.1634 190.302C25.0727 190.473 25.0273 190.667 25.0273 190.887V190.949C25.0273 191.176 25.0764 191.377 25.1748 191.551C25.2769 191.721 25.4169 191.855 25.5947 191.953C25.7762 192.048 25.9824 192.095 26.2131 192.095C26.3947 192.095 26.563 192.063 26.7181 191.999C26.877 191.935 27.0132 191.836 27.1266 191.704L27.3536 191.965C27.2212 192.124 27.0548 192.245 26.8543 192.328C26.6576 192.411 26.4401 192.453 26.2018 192.453ZM29.6261 192.453C29.316 192.453 29.0436 192.388 28.8091 192.26C28.5745 192.127 28.3911 191.948 28.2587 191.721C28.1263 191.49 28.0601 191.227 28.0601 190.932C28.0601 190.637 28.1225 190.376 28.2473 190.149C28.376 189.922 28.55 189.744 28.7694 189.616C28.9925 189.483 29.2422 189.417 29.5183 189.417C29.7982 189.417 30.046 189.482 30.2616 189.61C30.481 189.735 30.6531 189.913 30.778 190.143C30.9028 190.37 30.9652 190.633 30.9652 190.932C30.9652 190.951 30.9633 190.972 30.9595 190.995C30.9595 191.013 30.9595 191.034 30.9595 191.057H28.3665V190.756H30.7439L30.585 190.875C30.585 190.66 30.5378 190.469 30.4432 190.302C30.3524 190.132 30.2276 190 30.0687 189.905C29.9098 189.811 29.7264 189.763 29.5183 189.763C29.3141 189.763 29.1306 189.811 28.9679 189.905C28.8053 190 28.6786 190.132 28.5878 190.302C28.497 190.473 28.4516 190.667 28.4516 190.887V190.949C28.4516 191.176 28.5008 191.377 28.5991 191.551C28.7013 191.721 28.8412 191.855 29.019 191.953C29.2006 192.048 29.4067 192.095 29.6375 192.095C29.819 192.095 29.9874 192.063 30.1425 191.999C30.3013 191.935 30.4375 191.836 30.551 191.704L30.778 191.965C30.6456 192.124 30.4791 192.245 30.2786 192.328C30.0819 192.411 29.8644 192.453 29.6261 192.453ZM33.3058 189.417C33.5479 189.417 33.7597 189.464 33.9413 189.559C34.1266 189.65 34.2704 189.79 34.3725 189.979C34.4784 190.168 34.5314 190.406 34.5314 190.694V192.424H34.1285V190.734C34.1285 190.42 34.0491 190.183 33.8902 190.024C33.7351 189.862 33.5157 189.78 33.232 189.78C33.0202 189.78 32.8349 189.824 32.676 189.911C32.5209 189.994 32.3999 190.117 32.3129 190.28C32.2296 190.439 32.188 190.631 32.188 190.858V192.424H31.7852V189.446H32.171V190.263L32.1086 190.109C32.2032 189.894 32.3545 189.725 32.5625 189.604C32.7706 189.48 33.0183 189.417 33.3058 189.417Z" fill="#5A5A5A"/>
<path d="M138.866 192.458C138.582 192.458 138.311 192.413 138.054 192.322C137.797 192.228 137.593 192.103 137.441 191.948L137.64 191.624C137.765 191.757 137.935 191.866 138.151 191.953C138.37 192.04 138.606 192.084 138.86 192.084C139.197 192.084 139.452 192.01 139.626 191.863C139.804 191.711 139.893 191.515 139.893 191.272C139.893 191.102 139.851 190.957 139.768 190.836C139.688 190.711 139.552 190.614 139.359 190.546C139.166 190.478 138.901 190.444 138.565 190.444H137.719L137.924 188.452H140.097V188.816H138.088L138.298 188.617L138.122 190.285L137.912 190.081H138.656C139.057 190.081 139.378 190.13 139.62 190.228C139.862 190.327 140.036 190.465 140.142 190.643C140.252 190.817 140.307 191.021 140.307 191.255C140.307 191.479 140.254 191.683 140.148 191.868C140.042 192.05 139.883 192.194 139.671 192.299C139.459 192.405 139.191 192.458 138.866 192.458ZM142.062 188.418C142.414 188.418 142.711 188.498 142.953 188.657C143.195 188.812 143.379 189.037 143.503 189.332C143.628 189.627 143.691 189.984 143.691 190.404C143.691 190.851 143.613 191.227 143.458 191.533C143.307 191.84 143.095 192.071 142.823 192.226C142.55 192.381 142.234 192.458 141.875 192.458C141.697 192.458 141.527 192.441 141.364 192.407C141.206 192.373 141.062 192.318 140.933 192.243L141.098 191.914C141.2 191.982 141.317 192.031 141.45 192.061C141.586 192.088 141.726 192.101 141.869 192.101C142.297 192.101 142.637 191.965 142.891 191.692C143.148 191.42 143.277 191.013 143.277 190.472C143.277 190.385 143.271 190.281 143.26 190.16C143.252 190.039 143.231 189.918 143.197 189.797L143.339 189.905C143.301 190.102 143.22 190.27 143.095 190.41C142.974 190.546 142.823 190.65 142.641 190.722C142.463 190.794 142.265 190.83 142.045 190.83C141.784 190.83 141.552 190.781 141.347 190.682C141.147 190.584 140.99 190.446 140.876 190.268C140.763 190.09 140.706 189.88 140.706 189.638C140.706 189.389 140.765 189.173 140.882 188.991C140.999 188.81 141.16 188.67 141.364 188.572C141.572 188.469 141.805 188.418 142.062 188.418ZM142.079 188.765C141.89 188.765 141.722 188.8 141.574 188.872C141.431 188.94 141.317 189.039 141.234 189.167C141.151 189.296 141.109 189.449 141.109 189.627C141.109 189.888 141.198 190.096 141.376 190.251C141.557 190.406 141.801 190.484 142.108 190.484C142.312 190.484 142.49 190.446 142.641 190.37C142.796 190.295 142.915 190.191 142.999 190.058C143.086 189.926 143.129 189.778 143.129 189.616C143.129 189.468 143.089 189.33 143.01 189.201C142.93 189.073 142.813 188.969 142.658 188.889C142.503 188.806 142.31 188.765 142.079 188.765Z" fill="#5A5A5A"/>
<rect x="17.7809" y="173.859" width="127.069" height="4.52025" rx="2.26013" fill="url(#paint2_linear_8_575)"/>
<g filter="url(#filter2_d_8_575)">
<circle cx="28.5796" cy="176.119" r="4.26928" fill="white"/>
</g>
<path d="M18.4278 170.827V166.856H19.9144C20.251 166.856 20.5404 166.91 20.7825 167.02C21.0246 167.126 21.2099 167.281 21.3385 167.485C21.4709 167.686 21.5371 167.93 21.5371 168.217C21.5371 168.497 21.4709 168.739 21.3385 168.944C21.2099 169.144 21.0246 169.299 20.7825 169.409C20.5404 169.515 20.251 169.568 19.9144 169.568H18.6604L18.8477 169.375V170.827H18.4278ZM21.14 170.827L20.1186 169.386H20.5726L21.5995 170.827H21.14ZM18.8477 169.409L18.6604 169.21H19.903C20.3002 169.21 20.6009 169.123 20.8052 168.949C21.0132 168.775 21.1173 168.531 21.1173 168.217C21.1173 167.9 21.0132 167.654 20.8052 167.48C20.6009 167.306 20.3002 167.219 19.903 167.219H18.6604L18.8477 167.02V169.409ZM23.7083 170.856C23.3981 170.856 23.1258 170.791 22.8913 170.663C22.6567 170.53 22.4733 170.351 22.3409 170.124C22.2085 169.893 22.1423 169.63 22.1423 169.335C22.1423 169.04 22.2047 168.779 22.3295 168.552C22.4582 168.325 22.6322 168.147 22.8516 168.019C23.0747 167.886 23.3244 167.82 23.6005 167.82C23.8804 167.82 24.1282 167.885 24.3438 168.013C24.5632 168.138 24.7353 168.316 24.8601 168.546C24.985 168.773 25.0474 169.036 25.0474 169.335C25.0474 169.354 25.0455 169.375 25.0417 169.398C25.0417 169.416 25.0417 169.437 25.0417 169.46H22.4487V169.159H24.8261L24.6672 169.278C24.6672 169.063 24.6199 168.872 24.5254 168.705C24.4346 168.535 24.3098 168.403 24.1509 168.308C23.992 168.214 23.8086 168.166 23.6005 168.166C23.3963 168.166 23.2128 168.214 23.0501 168.308C22.8875 168.403 22.7608 168.535 22.67 168.705C22.5792 168.876 22.5338 169.07 22.5338 169.29V169.352C22.5338 169.579 22.583 169.78 22.6813 169.954C22.7835 170.124 22.9234 170.258 23.1012 170.356C23.2828 170.451 23.4889 170.498 23.7197 170.498C23.9012 170.498 24.0696 170.466 24.2247 170.402C24.3835 170.338 24.5197 170.239 24.6332 170.107L24.8601 170.368C24.7278 170.527 24.5613 170.648 24.3608 170.731C24.1641 170.814 23.9466 170.856 23.7083 170.856ZM27.0532 170.856C26.7695 170.856 26.5142 170.791 26.2872 170.663C26.0641 170.534 25.8882 170.356 25.7596 170.13C25.631 169.899 25.5666 169.634 25.5666 169.335C25.5666 169.033 25.631 168.768 25.7596 168.541C25.8882 168.314 26.0641 168.138 26.2872 168.013C26.5142 167.885 26.7695 167.82 27.0532 167.82C27.3142 167.82 27.5469 167.879 27.7511 167.996C27.9592 168.113 28.1237 168.285 28.2448 168.512C28.3696 168.736 28.432 169.01 28.432 169.335C28.432 169.657 28.3715 169.931 28.2505 170.158C28.1294 170.385 27.9649 170.559 27.7568 170.68C27.5526 170.797 27.318 170.856 27.0532 170.856ZM27.0816 170.498C27.2934 170.498 27.4826 170.451 27.649 170.356C27.8192 170.258 27.9516 170.122 28.0462 169.948C28.1445 169.77 28.1937 169.566 28.1937 169.335C28.1937 169.101 28.1445 168.896 28.0462 168.722C27.9516 168.548 27.8192 168.414 27.649 168.32C27.4826 168.221 27.2934 168.172 27.0816 168.172C26.8736 168.172 26.6863 168.221 26.5199 168.32C26.3534 168.414 26.2211 168.548 26.1227 168.722C26.0244 168.896 25.9752 169.101 25.9752 169.335C25.9752 169.566 26.0244 169.77 26.1227 169.948C26.2211 170.122 26.3534 170.258 26.5199 170.356C26.6863 170.451 26.8736 170.498 27.0816 170.498ZM28.2051 170.827V169.931L28.2448 169.329L28.188 168.728V166.617H28.5909V170.827H28.2051Z" fill="#5A5A5A"/>
<path d="M142.364 166.822C142.716 166.822 143.013 166.901 143.255 167.06C143.497 167.215 143.681 167.44 143.806 167.735C143.93 168.03 143.993 168.388 143.993 168.808C143.993 169.254 143.915 169.63 143.76 169.937C143.609 170.243 143.397 170.474 143.125 170.629C142.852 170.784 142.536 170.861 142.177 170.861C141.999 170.861 141.829 170.844 141.666 170.81C141.508 170.776 141.364 170.722 141.235 170.646L141.4 170.317C141.502 170.385 141.619 170.434 141.752 170.464C141.888 170.491 142.028 170.504 142.171 170.504C142.599 170.504 142.939 170.368 143.193 170.095C143.45 169.823 143.579 169.417 143.579 168.876C143.579 168.789 143.573 168.685 143.562 168.564C143.554 168.442 143.533 168.321 143.499 168.2L143.641 168.308C143.603 168.505 143.522 168.673 143.397 168.813C143.276 168.949 143.125 169.053 142.943 169.125C142.765 169.197 142.567 169.233 142.347 169.233C142.086 169.233 141.854 169.184 141.649 169.086C141.449 168.987 141.292 168.849 141.179 168.671C141.065 168.494 141.008 168.284 141.008 168.042C141.008 167.792 141.067 167.576 141.184 167.395C141.301 167.213 141.462 167.073 141.666 166.975C141.875 166.873 142.107 166.822 142.364 166.822ZM142.381 167.168C142.192 167.168 142.024 167.204 141.876 167.276C141.733 167.344 141.619 167.442 141.536 167.571C141.453 167.699 141.411 167.852 141.411 168.03C141.411 168.291 141.5 168.499 141.678 168.654C141.859 168.809 142.103 168.887 142.41 168.887C142.614 168.887 142.792 168.849 142.943 168.773C143.098 168.698 143.217 168.594 143.301 168.461C143.388 168.329 143.431 168.181 143.431 168.019C143.431 167.871 143.391 167.733 143.312 167.605C143.233 167.476 143.115 167.372 142.96 167.293C142.805 167.209 142.612 167.168 142.381 167.168Z" fill="#5A5A5A"/>
<rect x="65.4948" y="233.627" width="32.144" height="10.045" rx="5.0225" fill="#F7F7F7"/>
<rect x="65.9974" y="234.129" width="16.0735" height="9.04134" rx="4.52067" fill="white"/>
<path d="M69.4703 240.138V237.318H70.526C70.7651 237.318 70.9705 237.357 71.1425 237.435C71.3144 237.51 71.446 237.62 71.5373 237.765C71.6313 237.907 71.6783 238.081 71.6783 238.285C71.6783 238.484 71.6313 238.655 71.5373 238.8C71.446 238.943 71.3144 239.053 71.1425 239.131C70.9705 239.206 70.7651 239.244 70.526 239.244H69.6355L69.7685 239.107V240.138H69.4703ZM71.3963 240.138L70.671 239.115H70.9934L71.7227 240.138H71.3963ZM69.7685 239.131L69.6355 238.99H70.5179C70.8 238.99 71.0135 238.928 71.1586 238.805C71.3063 238.681 71.3802 238.508 71.3802 238.285C71.3802 238.059 71.3063 237.885 71.1586 237.761C71.0135 237.637 70.8 237.576 70.5179 237.576H69.6355L69.7685 237.435V239.131ZM73.6191 240.162C73.4042 240.162 73.2054 240.127 73.0227 240.058C72.8428 239.985 72.6856 239.884 72.5513 239.755C72.4197 239.626 72.3163 239.475 72.2411 239.3C72.1685 239.126 72.1323 238.935 72.1323 238.728C72.1323 238.521 72.1685 238.33 72.2411 238.156C72.3163 237.981 72.421 237.829 72.5553 237.701C72.6896 237.572 72.8468 237.472 73.0268 237.402C73.2094 237.33 73.4082 237.294 73.6231 237.294C73.838 237.294 74.0341 237.327 74.2114 237.394C74.3913 237.461 74.5444 237.564 74.6707 237.701L74.4853 237.89C74.3672 237.772 74.2369 237.687 74.0945 237.636C73.9521 237.585 73.799 237.559 73.6352 237.559C73.4606 237.559 73.2994 237.589 73.1517 237.648C73.0066 237.705 72.879 237.786 72.7689 237.894C72.6614 237.999 72.5768 238.122 72.515 238.265C72.4559 238.404 72.4264 238.559 72.4264 238.728C72.4264 238.895 72.4559 239.049 72.515 239.191C72.5768 239.334 72.6614 239.459 72.7689 239.566C72.879 239.671 73.0066 239.753 73.1517 239.812C73.2994 239.868 73.4592 239.896 73.6311 239.896C73.7923 239.896 73.9441 239.872 74.0864 239.824C74.2315 239.776 74.3645 239.694 74.4853 239.578L74.6546 239.804C74.5203 239.922 74.3631 240.012 74.1831 240.074C74.0032 240.133 73.8151 240.162 73.6191 240.162ZM74.3685 239.768V238.728H74.6546V239.804L74.3685 239.768ZM75.4984 240.138V237.318H76.7153C77.0296 237.318 77.2727 237.381 77.4446 237.507C77.6192 237.633 77.7065 237.812 77.7065 238.043C77.7065 238.196 77.6702 238.325 77.5977 238.43C77.5278 238.535 77.4311 238.614 77.3076 238.668C77.1867 238.721 77.0537 238.748 76.9087 238.748L76.9772 238.651C77.1572 238.651 77.3116 238.68 77.4405 238.736C77.5722 238.79 77.6742 238.872 77.7468 238.982C77.8193 239.089 77.8556 239.224 77.8556 239.385C77.8556 239.624 77.7669 239.809 77.5896 239.941C77.415 240.072 77.1504 240.138 76.7959 240.138H75.4984ZM75.7966 239.892H76.7918C77.039 239.892 77.2283 239.851 77.36 239.768C77.4916 239.682 77.5574 239.546 77.5574 239.361C77.5574 239.178 77.4916 239.045 77.36 238.962C77.2283 238.876 77.039 238.833 76.7918 238.833H75.7644V238.587H76.6951C76.9208 238.587 77.0954 238.544 77.2189 238.458C77.3452 238.372 77.4083 238.244 77.4083 238.075C77.4083 237.903 77.3452 237.776 77.2189 237.692C77.0954 237.606 76.9208 237.564 76.6951 237.564H75.7966V239.892Z" fill="#8A8888"/>
<circle cx="91.6124" cy="267.78" r="10.0454" fill="#F7F7F7"/>
<path fill-rule="evenodd" clip-rule="evenodd" d="M88.844 271.78L86.3942 269.386C85.9919 268.993 85.9462 268.315 86.2921 267.872C86.638 267.428 87.2446 267.387 87.6469 267.78L89.5259 269.616L95.0705 264.117C95.4698 263.721 96.0766 263.757 96.4258 264.198C96.775 264.639 96.7344 265.317 96.3351 265.713L90.1712 271.827C89.7824 272.212 89.1969 272.188 88.844 271.78Z" fill="#ABABAB"/>
<circle cx="114.214" cy="267.78" r="10.0454" fill="#F7F7F7"/>
<path fill-rule="evenodd" clip-rule="evenodd" d="M119.237 262.626C119.237 262.26 118.795 262.077 118.536 262.335L117.296 263.575C116.759 263.137 116.136 262.805 115.461 262.605C114.291 262.259 113.038 262.328 111.913 262.802C110.789 263.276 109.864 264.126 109.295 265.205C108.727 266.285 108.551 267.529 108.796 268.724C109.042 269.919 109.694 270.992 110.643 271.76C111.591 272.528 112.776 272.944 113.996 272.936C115.216 272.928 116.396 272.498 117.334 271.718C118.167 271.025 118.764 270.096 119.049 269.058C119.109 268.839 118.961 268.623 118.738 268.58L117.319 268.307C117.096 268.265 116.883 268.412 116.81 268.627C116.633 269.15 116.314 269.617 115.885 269.974C115.35 270.419 114.677 270.664 113.982 270.669C113.286 270.673 112.61 270.436 112.07 269.998C111.529 269.561 111.157 268.949 111.017 268.267C110.877 267.586 110.978 266.877 111.302 266.261C111.626 265.646 112.153 265.162 112.794 264.891C113.435 264.621 114.15 264.581 114.817 264.779C115.127 264.871 115.417 265.011 115.679 265.193L114.663 266.208C114.405 266.467 114.588 266.909 114.954 266.909H118.826C119.053 266.909 119.237 266.725 119.237 266.498V262.626Z" fill="#ABABAB"/>
<circle cx="136.313" cy="267.78" r="10.0454" fill="#F7F7F7"/>
<path d="M140.359 263.897C140.078 263.609 139.744 263.381 139.375 263.225C139.007 263.069 138.612 262.989 138.213 262.988C137.458 262.989 136.731 263.277 136.175 263.795C135.62 263.276 134.892 262.989 134.138 262.988C133.738 262.989 133.343 263.07 132.974 263.226C132.605 263.382 132.271 263.611 131.989 263.899C130.789 265.123 130.79 267.037 131.99 268.255L136.175 272.506L140.36 268.255C141.561 267.037 141.561 265.123 140.359 263.897V263.897Z" fill="#ABABAB"/>
<rect x="16.2746" y="257.735" width="60.2707" height="20.0902" rx="10.0451" fill="#F7F7F7"/>
<path d="M25.334 269.268L25.7615 265.789H26.0299L25.6024 269.268H25.334ZM23.4504 268.324V268.051H26.4573V268.324H23.4504ZM24.0418 269.268L24.4693 265.789H24.7426L24.3102 269.268H24.0418ZM23.6094 267.007V266.734H26.6163V267.007H23.6094ZM29.8781 265.789H30.2409V269.268H29.8781V265.789ZM27.7012 269.268H27.3334V265.789H27.7012V269.268ZM29.9129 267.663H27.6615V267.34H29.9129V267.663ZM32.4102 269.293C32.1385 269.293 31.9 269.237 31.6945 269.124C31.4891 269.008 31.3284 268.851 31.2124 268.652C31.0965 268.45 31.0385 268.22 31.0385 267.961C31.0385 267.703 31.0931 267.474 31.2025 267.276C31.3151 267.077 31.4676 266.921 31.6597 266.808C31.8552 266.692 32.0739 266.634 32.3158 266.634C32.561 266.634 32.778 266.691 32.9669 266.803C33.159 266.913 33.3098 267.068 33.4191 267.271C33.5285 267.469 33.5831 267.7 33.5831 267.961C33.5831 267.978 33.5815 267.996 33.5782 268.016C33.5782 268.033 33.5782 268.051 33.5782 268.071H31.3069V267.807H33.3893L33.2501 267.912C33.2501 267.723 33.2087 267.555 33.1259 267.41C33.0464 267.261 32.937 267.145 32.7979 267.062C32.6587 266.979 32.498 266.938 32.3158 266.938C32.1369 266.938 31.9762 266.979 31.8337 267.062C31.6912 267.145 31.5802 267.261 31.5007 267.41C31.4212 267.559 31.3814 267.729 31.3814 267.922V267.976C31.3814 268.175 31.4245 268.351 31.5106 268.503C31.6001 268.652 31.7227 268.77 31.8784 268.856C32.0375 268.939 32.218 268.98 32.4201 268.98C32.5792 268.98 32.7266 268.952 32.8625 268.896C33.0016 268.839 33.1209 268.753 33.2203 268.637L33.4191 268.866C33.3032 269.005 33.1574 269.111 32.9818 269.184C32.8095 269.257 32.6189 269.293 32.4102 269.293ZM33.831 269.268L34.9343 267.837L34.9294 268.011L33.8807 266.659H34.2783L35.1381 267.777L34.989 267.773L35.8488 266.659H36.2365L35.1779 268.026L35.1828 267.837L36.2961 269.268H35.8935L34.984 268.076L35.1232 268.096L34.2286 269.268H33.831Z" fill="#6F6F6F"/>
<rect x="16.2746" y="152.262" width="9.04051" height="36.8078" rx="4.52025" transform="rotate(-90 16.2746 152.262)" fill="#F4F4F4"/>
<path d="M21.3061 145.78H21.5523V149.159H21.3061V145.78ZM19.047 149.159H18.8008V145.78H19.047V149.159ZM21.3351 147.551H19.018V147.334H21.3351V147.551ZM22.9495 147.334H24.7791V147.551H22.9495V147.334ZM22.9785 148.937H25.0639V149.159H22.7323V145.78H24.9915V146.002H22.9785V148.937ZM25.4267 149.159L26.7976 147.32V147.513L25.5184 145.78H25.808L26.9376 147.305H26.8314L27.961 145.78H28.2361L26.9666 147.494V147.329L28.3278 149.159H28.0382L26.8217 147.527H26.9231L25.7163 149.159H25.4267ZM31.2552 149.183C30.9978 149.183 30.7693 149.114 30.5698 148.975C30.3703 148.837 30.2142 148.641 30.1015 148.387C29.9889 148.129 29.9326 147.823 29.9326 147.469C29.9326 147.115 29.9889 146.811 30.1015 146.557C30.2142 146.3 30.3703 146.102 30.5698 145.963C30.7693 145.825 30.9978 145.756 31.2552 145.756C31.5159 145.756 31.7444 145.825 31.9407 145.963C32.1402 146.102 32.2963 146.3 32.4089 146.557C32.5216 146.811 32.5779 147.115 32.5779 147.469C32.5779 147.823 32.5216 148.129 32.4089 148.387C32.2963 148.641 32.1402 148.837 31.9407 148.975C31.7444 149.114 31.5159 149.183 31.2552 149.183ZM31.2552 148.956C31.4709 148.956 31.6591 148.898 31.82 148.782C31.9809 148.663 32.1064 148.493 32.1966 148.271C32.2867 148.049 32.3317 147.782 32.3317 147.469C32.3317 147.154 32.2867 146.887 32.1966 146.668C32.1064 146.446 31.9809 146.277 31.82 146.161C31.6591 146.042 31.4709 145.983 31.2552 145.983C31.0428 145.983 30.8546 146.042 30.6905 146.161C30.5295 146.277 30.404 146.446 30.3139 146.668C30.2238 146.887 30.1788 147.154 30.1788 147.469C30.1788 147.782 30.2238 148.049 30.3139 148.271C30.404 148.493 30.5295 148.663 30.6905 148.782C30.8546 148.898 31.0428 148.956 31.2552 148.956ZM34.1284 145.756C34.4245 145.756 34.6723 145.823 34.8718 145.958C35.0746 146.094 35.2274 146.288 35.3304 146.543C35.4334 146.794 35.4849 147.096 35.4849 147.45C35.4849 147.83 35.4221 148.148 35.2966 148.406C35.1711 148.663 34.9957 148.858 34.7704 148.99C34.5452 149.119 34.2829 149.183 33.9836 149.183C33.8388 149.183 33.7004 149.17 33.5685 149.144C33.4397 149.119 33.3223 149.074 33.2161 149.009L33.3174 148.811C33.4043 148.866 33.5057 148.906 33.6216 148.932C33.7374 148.955 33.8581 148.966 33.9836 148.966C34.3633 148.966 34.6675 148.844 34.896 148.599C35.1244 148.351 35.2387 147.981 35.2387 147.489C35.2387 147.411 35.2339 147.317 35.2242 147.204C35.2145 147.091 35.1936 146.98 35.1614 146.871L35.2483 146.895C35.2258 147.082 35.1631 147.241 35.0601 147.373C34.9571 147.502 34.8252 147.601 34.6642 147.672C34.5066 147.743 34.3296 147.778 34.1333 147.778C33.908 147.778 33.7101 147.738 33.5395 147.658C33.3722 147.574 33.2402 147.456 33.1437 147.305C33.0503 147.154 33.0037 146.977 33.0037 146.774C33.0037 146.568 33.052 146.39 33.1485 146.238C33.2483 146.084 33.3818 145.965 33.5492 145.881C33.7197 145.798 33.9128 145.756 34.1284 145.756ZM34.1381 145.968C33.9611 145.968 33.8066 146.002 33.6747 146.069C33.5427 146.134 33.4381 146.226 33.3609 146.345C33.2869 146.464 33.2499 146.605 33.2499 146.769C33.2499 147.011 33.3319 147.204 33.4961 147.349C33.6602 147.494 33.8838 147.566 34.167 147.566C34.3505 147.566 34.513 147.531 34.6546 147.46C34.7962 147.389 34.9056 147.292 34.9828 147.17C35.0633 147.048 35.1035 146.911 35.1035 146.76C35.1035 146.628 35.0665 146.502 34.9925 146.383C34.9185 146.261 34.8107 146.161 34.6691 146.084C34.5275 146.007 34.3505 145.968 34.1381 145.968ZM36.9562 149.183C36.7084 149.183 36.4767 149.141 36.2611 149.058C36.0487 148.974 35.8829 148.864 35.7639 148.729L35.8894 148.541C35.9924 148.66 36.1372 148.76 36.3238 148.84C36.5137 148.918 36.7245 148.956 36.9562 148.956C37.2587 148.956 37.4888 148.889 37.6465 148.753C37.8074 148.618 37.8879 148.436 37.8879 148.208C37.8879 147.983 37.8074 147.802 37.6465 147.667C37.4888 147.529 37.241 147.46 36.9031 147.46H36.6907V147.281L37.7672 145.905L37.801 146.002H35.8894V145.78H38.0085V145.954L36.9369 147.329L36.8307 147.252H36.9369C37.3392 147.252 37.6401 147.341 37.8396 147.518C38.0391 147.695 38.1389 147.925 38.1389 148.208C38.1389 148.395 38.0938 148.562 38.0037 148.71C37.9168 148.858 37.7849 148.974 37.6079 149.058C37.4341 149.141 37.2169 149.183 36.9562 149.183ZM38.9818 149.159V145.78H40.3913C40.755 145.78 41.0398 145.854 41.2458 146.002C41.4517 146.15 41.5547 146.364 41.5547 146.644C41.5547 146.827 41.5113 146.982 41.4244 147.107C41.3375 147.233 41.2168 147.328 41.0623 147.392C40.9111 147.453 40.7405 147.484 40.5506 147.484L40.6375 147.387C40.8692 147.387 41.0671 147.421 41.2313 147.489C41.3954 147.556 41.5193 147.654 41.603 147.783C41.6899 147.912 41.7333 148.073 41.7333 148.266C41.7333 148.549 41.6303 148.77 41.4244 148.927C41.2184 149.082 40.9062 149.159 40.4879 149.159H38.9818ZM39.228 148.946H40.4879C40.8129 148.946 41.0607 148.892 41.2313 148.782C41.4018 148.67 41.4871 148.491 41.4871 148.247C41.4871 148.005 41.4018 147.83 41.2313 147.72C41.0607 147.608 40.8129 147.551 40.4879 147.551H39.199V147.339H40.3817C40.6745 147.339 40.9014 147.283 41.0623 147.17C41.2232 147.057 41.3037 146.888 41.3037 146.663C41.3037 146.441 41.2232 146.274 41.0623 146.161C40.9014 146.049 40.6745 145.992 40.3817 145.992H39.228V148.946ZM42.2303 148.222V148.044L44.0646 145.78H44.3398L42.5103 148.044L42.3751 148.005H45.1073V148.222H42.2303ZM44.1563 149.159V148.222L44.1612 148.005V147.18H44.3977V149.159H44.1563ZM47.2461 149.183C46.9951 149.183 46.7617 149.141 46.5461 149.058C46.3337 148.971 46.1487 148.85 45.991 148.695C45.8333 148.541 45.711 148.361 45.6241 148.155C45.5372 147.946 45.4938 147.717 45.4938 147.469C45.4938 147.222 45.5372 146.995 45.6241 146.789C45.711 146.58 45.8333 146.398 45.991 146.243C46.1519 146.089 46.3386 145.97 46.5509 145.886C46.7633 145.799 46.9951 145.756 47.2461 145.756C47.4842 145.756 47.7063 145.794 47.9122 145.872C48.1214 145.949 48.3 146.066 48.448 146.224L48.2936 146.383C48.1488 146.242 47.9879 146.14 47.8109 146.079C47.6371 146.015 47.452 145.983 47.2557 145.983C47.0401 145.983 46.839 146.02 46.6523 146.094C46.4689 146.168 46.308 146.272 46.1696 146.407C46.0344 146.543 45.9282 146.7 45.851 146.88C45.777 147.061 45.74 147.257 45.74 147.469C45.74 147.682 45.777 147.878 45.851 148.058C45.9282 148.239 46.0344 148.396 46.1696 148.531C46.308 148.667 46.4689 148.771 46.6523 148.845C46.839 148.919 47.0401 148.956 47.2557 148.956C47.452 148.956 47.6371 148.926 47.8109 148.864C47.9879 148.8 48.1488 148.695 48.2936 148.551L48.448 148.71C48.3 148.868 48.1214 148.987 47.9122 149.067C47.7063 149.144 47.4842 149.183 47.2461 149.183Z" fill="#303030"/>
<rect x="56.9569" y="152.262" width="9.0406" height="50.0246" rx="4.5203" transform="rotate(-90 56.9569 152.262)" fill="#F4F4F4"/>
<path d="M61.9965 145.777H62.2431V149.162H61.9965V145.777ZM59.7337 149.162H59.4871V145.777H59.7337V149.162ZM62.0255 147.552H59.7047V147.334H62.0255V147.552ZM64.3147 149.186C64.0633 149.186 63.8248 149.144 63.5991 149.06C63.3767 148.973 63.2043 148.862 63.0818 148.727L63.193 148.543C63.309 148.662 63.467 148.764 63.6668 148.848C63.8699 148.928 64.0842 148.969 64.3099 148.969C64.5355 148.969 64.7192 148.94 64.8611 148.882C65.0061 148.82 65.1125 148.74 65.1802 148.64C65.2511 148.54 65.2866 148.429 65.2866 148.306C65.2866 148.161 65.2479 148.045 65.1705 147.958C65.0932 147.871 64.9916 147.802 64.8659 147.75C64.7402 147.699 64.6032 147.655 64.4549 147.62C64.3067 147.584 64.1568 147.547 64.0053 147.508C63.8538 147.467 63.7152 147.413 63.5894 147.349C63.4637 147.284 63.3622 147.197 63.2848 147.088C63.2107 146.975 63.1736 146.83 63.1736 146.653C63.1736 146.491 63.2155 146.343 63.2993 146.208C63.3831 146.072 63.5137 145.963 63.691 145.879C63.8683 145.795 64.0955 145.753 64.3727 145.753C64.5597 145.753 64.7434 145.781 64.9239 145.835C65.1077 145.89 65.264 145.964 65.3929 146.058L65.3011 146.256C65.1592 146.159 65.0061 146.089 64.8417 146.043C64.6806 145.995 64.5242 145.971 64.3727 145.971C64.1568 145.971 63.9779 146.001 63.836 146.063C63.6942 146.124 63.5894 146.206 63.5218 146.309C63.4541 146.409 63.4202 146.522 63.4202 146.648C63.4202 146.793 63.4573 146.909 63.5314 146.996C63.6088 147.083 63.7103 147.152 63.836 147.204C63.9617 147.255 64.1004 147.299 64.2519 147.334C64.4034 147.37 64.5532 147.408 64.7015 147.45C64.8498 147.489 64.9868 147.541 65.1125 147.605C65.2382 147.67 65.3398 147.757 65.4171 147.866C65.4945 147.976 65.5332 148.118 65.5332 148.292C65.5332 148.45 65.4896 148.598 65.4026 148.737C65.3156 148.872 65.1818 148.982 65.0013 149.065C64.824 149.146 64.5951 149.186 64.3147 149.186ZM66.3714 149.162V145.777H66.618V148.94H68.5666V149.162H66.3714ZM70.722 149.162V145.884L70.8332 146H69.8952V145.777H70.9686V149.162H70.722ZM72.8424 145.753C73.139 145.753 73.3872 145.821 73.587 145.956C73.7901 146.092 73.9432 146.287 74.0464 146.541C74.1495 146.793 74.2011 147.096 74.2011 147.45C74.2011 147.831 74.1382 148.15 74.0125 148.408C73.8868 148.666 73.7111 148.861 73.4855 148.993C73.2598 149.122 72.9971 149.186 72.6974 149.186C72.5523 149.186 72.4137 149.173 72.2815 149.148C72.1526 149.122 72.035 149.077 71.9286 149.012L72.0301 148.814C72.1172 148.869 72.2187 148.909 72.3347 148.935C72.4508 148.957 72.5717 148.969 72.6974 148.969C73.0777 148.969 73.3823 148.846 73.6112 148.601C73.8401 148.353 73.9545 147.982 73.9545 147.489C73.9545 147.412 73.9497 147.317 73.94 147.204C73.9303 147.091 73.9094 146.98 73.8771 146.87L73.9642 146.894C73.9416 147.081 73.8787 147.241 73.7756 147.373C73.6724 147.502 73.5403 147.602 73.3791 147.673C73.2212 147.744 73.0439 147.779 72.8473 147.779C72.6216 147.779 72.4234 147.739 72.2525 147.658C72.0849 147.574 71.9528 147.457 71.8561 147.305C71.7626 147.154 71.7158 146.977 71.7158 146.773C71.7158 146.567 71.7642 146.388 71.8609 146.237C71.9608 146.082 72.0946 145.963 72.2622 145.879C72.433 145.795 72.6264 145.753 72.8424 145.753ZM72.8521 145.966C72.6748 145.966 72.5201 146 72.3879 146.068C72.2558 146.132 72.151 146.224 72.0736 146.343C71.9995 146.462 71.9624 146.604 71.9624 146.769C71.9624 147.01 72.0446 147.204 72.209 147.349C72.3734 147.494 72.5974 147.566 72.8811 147.566C73.0648 147.566 73.2276 147.531 73.3694 147.46C73.5113 147.389 73.6209 147.292 73.6982 147.17C73.7788 147.047 73.8191 146.91 73.8191 146.759C73.8191 146.627 73.782 146.501 73.7079 146.382C73.6338 146.259 73.5258 146.159 73.3839 146.082C73.2421 146.005 73.0648 145.966 72.8521 145.966ZM75.78 149.186C75.5351 149.186 75.3046 149.144 75.0886 149.06C74.8759 148.977 74.7099 148.867 74.5906 148.732L74.7163 148.543C74.8195 148.662 74.9645 148.762 75.1515 148.843C75.3384 148.92 75.5463 148.959 75.7752 148.959C76.0879 148.959 76.3232 148.888 76.4811 148.746C76.6391 148.604 76.718 148.421 76.718 148.195C76.718 148.034 76.681 147.895 76.6068 147.779C76.5327 147.663 76.407 147.574 76.2297 147.513C76.0524 147.449 75.8107 147.417 75.5044 147.417H74.8179L74.9968 145.777H76.7906V146H75.0983L75.2192 145.884L75.0596 147.32L74.9436 147.194H75.5576C75.9025 147.194 76.1765 147.236 76.3796 147.32C76.5859 147.4 76.7342 147.515 76.8244 147.663C76.9179 147.811 76.9646 147.985 76.9646 148.185C76.9646 148.372 76.9211 148.542 76.8341 148.693C76.7471 148.845 76.6149 148.965 76.4376 149.056C76.2635 149.143 76.0444 149.186 75.78 149.186ZM77.8294 149.162L80.1406 145.777H80.3485L78.0373 149.162H77.8294ZM78.076 147.586C77.9309 147.586 77.802 147.549 77.6892 147.475C77.5764 147.397 77.4877 147.291 77.4232 147.155C77.362 147.017 77.3314 146.856 77.3314 146.672C77.3314 146.488 77.362 146.329 77.4232 146.193C77.4877 146.055 77.5764 145.948 77.6892 145.874C77.802 145.797 77.9309 145.758 78.076 145.758C78.2243 145.758 78.3548 145.797 78.4676 145.874C78.5804 145.948 78.6675 146.055 78.7287 146.193C78.7932 146.329 78.8254 146.488 78.8254 146.672C78.8254 146.856 78.7932 147.017 78.7287 147.155C78.6675 147.291 78.5804 147.397 78.4676 147.475C78.3548 147.549 78.2243 147.586 78.076 147.586ZM78.076 147.421C78.2468 147.421 78.3838 147.355 78.487 147.223C78.5901 147.091 78.6417 146.907 78.6417 146.672C78.6417 146.437 78.5901 146.253 78.487 146.121C78.3838 145.989 78.2468 145.923 78.076 145.923C77.9084 145.923 77.773 145.989 77.6698 146.121C77.5667 146.253 77.5151 146.437 77.5151 146.672C77.5151 146.904 77.5667 147.088 77.6698 147.223C77.773 147.355 77.9084 147.421 78.076 147.421ZM80.1019 149.181C79.9568 149.181 79.8263 149.144 79.7102 149.07C79.5974 148.993 79.5088 148.886 79.4443 148.751C79.3831 148.612 79.3525 148.451 79.3525 148.268C79.3525 148.084 79.3831 147.924 79.4443 147.789C79.5088 147.65 79.5974 147.544 79.7102 147.47C79.8263 147.392 79.9568 147.354 80.1019 147.354C80.2502 147.354 80.3791 147.392 80.4887 147.47C80.6015 147.544 80.6885 147.65 80.7498 147.789C80.8143 147.924 80.8465 148.084 80.8465 148.268C80.8465 148.451 80.8143 148.612 80.7498 148.751C80.6885 148.886 80.6015 148.993 80.4887 149.07C80.3791 149.144 80.2502 149.181 80.1019 149.181ZM80.1019 149.017C80.2695 149.017 80.4049 148.951 80.508 148.819C80.6112 148.683 80.6628 148.5 80.6628 148.268C80.6628 148.035 80.6112 147.853 80.508 147.721C80.4049 147.586 80.2695 147.518 80.1019 147.518C79.9311 147.518 79.7941 147.584 79.6909 147.716C79.5878 147.848 79.5362 148.032 79.5362 148.268C79.5362 148.503 79.5878 148.687 79.6909 148.819C79.7941 148.951 79.9311 149.017 80.1019 149.017ZM83.1732 149.162L84.6624 145.893L84.7495 146H82.5882L82.7139 145.884V146.648H82.4721V145.777H84.8994V145.952L83.444 149.162H83.1732ZM86.4033 145.753C86.6999 145.753 86.9481 145.821 87.1479 145.956C87.351 146.092 87.5041 146.287 87.6073 146.541C87.7104 146.793 87.762 147.096 87.762 147.45C87.762 147.831 87.6991 148.15 87.5734 148.408C87.4477 148.666 87.272 148.861 87.0464 148.993C86.8208 149.122 86.5581 149.186 86.2583 149.186C86.1132 149.186 85.9746 149.173 85.8425 149.148C85.7135 149.122 85.5959 149.077 85.4895 149.012L85.591 148.814C85.6781 148.869 85.7796 148.909 85.8957 148.935C86.0117 148.957 86.1326 148.969 86.2583 148.969C86.6386 148.969 86.9433 148.846 87.1721 148.601C87.401 148.353 87.5154 147.982 87.5154 147.489C87.5154 147.412 87.5106 147.317 87.5009 147.204C87.4912 147.091 87.4703 146.98 87.438 146.87L87.5251 146.894C87.5025 147.081 87.4397 147.241 87.3365 147.373C87.2334 147.502 87.1012 147.602 86.94 147.673C86.7821 147.744 86.6048 147.779 86.4082 147.779C86.1825 147.779 85.9843 147.739 85.8135 147.658C85.6458 147.574 85.5137 147.457 85.417 147.305C85.3235 147.154 85.2768 146.977 85.2768 146.773C85.2768 146.567 85.3251 146.388 85.4218 146.237C85.5217 146.082 85.6555 145.963 85.8231 145.879C85.994 145.795 86.1874 145.753 86.4033 145.753ZM86.413 145.966C86.2357 145.966 86.081 146 85.9488 146.068C85.8167 146.132 85.7119 146.224 85.6346 146.343C85.5604 146.462 85.5234 146.604 85.5234 146.769C85.5234 147.01 85.6055 147.204 85.7699 147.349C85.9343 147.494 86.1584 147.566 86.442 147.566C86.6258 147.566 86.7885 147.531 86.9304 147.46C87.0722 147.389 87.1818 147.292 87.2591 147.17C87.3397 147.047 87.38 146.91 87.38 146.759C87.38 146.627 87.343 146.501 87.2688 146.382C87.1947 146.259 87.0867 146.159 86.9449 146.082C86.803 146.005 86.6258 145.966 86.413 145.966ZM88.7414 149.162L91.0526 145.777H91.2605L88.9493 149.162H88.7414ZM88.988 147.586C88.8429 147.586 88.714 147.549 88.6012 147.475C88.4884 147.397 88.3997 147.291 88.3353 147.155C88.274 147.017 88.2434 146.856 88.2434 146.672C88.2434 146.488 88.274 146.329 88.3353 146.193C88.3997 146.055 88.4884 145.948 88.6012 145.874C88.714 145.797 88.8429 145.758 88.988 145.758C89.1363 145.758 89.2668 145.797 89.3796 145.874C89.4925 145.948 89.5795 146.055 89.6407 146.193C89.7052 146.329 89.7374 146.488 89.7374 146.672C89.7374 146.856 89.7052 147.017 89.6407 147.155C89.5795 147.291 89.4925 147.397 89.3796 147.475C89.2668 147.549 89.1363 147.586 88.988 147.586ZM88.988 147.421C89.1588 147.421 89.2958 147.355 89.399 147.223C89.5021 147.091 89.5537 146.907 89.5537 146.672C89.5537 146.437 89.5021 146.253 89.399 146.121C89.2958 145.989 89.1588 145.923 88.988 145.923C88.8204 145.923 88.685 145.989 88.5818 146.121C88.4787 146.253 88.4271 146.437 88.4271 146.672C88.4271 146.904 88.4787 147.088 88.5818 147.223C88.685 147.355 88.8204 147.421 88.988 147.421ZM91.0139 149.181C90.8688 149.181 90.7383 149.144 90.6223 149.07C90.5094 148.993 90.4208 148.886 90.3563 148.751C90.2951 148.612 90.2645 148.451 90.2645 148.268C90.2645 148.084 90.2951 147.924 90.3563 147.789C90.4208 147.65 90.5094 147.544 90.6223 147.47C90.7383 147.392 90.8688 147.354 91.0139 147.354C91.1622 147.354 91.2911 147.392 91.4007 147.47C91.5135 147.544 91.6006 147.65 91.6618 147.789C91.7263 147.924 91.7585 148.084 91.7585 148.268C91.7585 148.451 91.7263 148.612 91.6618 148.751C91.6006 148.886 91.5135 148.993 91.4007 149.07C91.2911 149.144 91.1622 149.181 91.0139 149.181ZM91.0139 149.017C91.1815 149.017 91.3169 148.951 91.42 148.819C91.5232 148.683 91.5748 148.5 91.5748 148.268C91.5748 148.035 91.5232 147.853 91.42 147.721C91.3169 147.586 91.1815 147.518 91.0139 147.518C90.8431 147.518 90.7061 147.584 90.6029 147.716C90.4998 147.848 90.4482 148.032 90.4482 148.268C90.4482 148.503 90.4998 148.687 90.6029 148.819C90.7061 148.951 90.8431 149.017 91.0139 149.017ZM94.0901 149.162V145.884L94.2013 146H93.2633V145.777H94.3367V149.162H94.0901ZM95.7898 149.162L97.279 145.893L97.366 146H95.2048L95.3305 145.884V146.648H95.0887V145.777H97.5159V145.952L96.0606 149.162H95.7898ZM98.4494 149.162L100.761 145.777H100.968L98.6573 149.162H98.4494ZM98.696 147.586C98.5509 147.586 98.422 147.549 98.3091 147.475C98.1963 147.397 98.1077 147.291 98.0432 147.155C97.982 147.017 97.9514 146.856 97.9514 146.672C97.9514 146.488 97.982 146.329 98.0432 146.193C98.1077 146.055 98.1963 145.948 98.3091 145.874C98.422 145.797 98.5509 145.758 98.696 145.758C98.8442 145.758 98.9748 145.797 99.0876 145.874C99.2004 145.948 99.2874 146.055 99.3487 146.193C99.4132 146.329 99.4454 146.488 99.4454 146.672C99.4454 146.856 99.4132 147.017 99.3487 147.155C99.2874 147.291 99.2004 147.397 99.0876 147.475C98.9748 147.549 98.8442 147.586 98.696 147.586ZM98.696 147.421C98.8668 147.421 99.0038 147.355 99.1069 147.223C99.2101 147.091 99.2617 146.907 99.2617 146.672C99.2617 146.437 99.2101 146.253 99.1069 146.121C99.0038 145.989 98.8668 145.923 98.696 145.923C98.5283 145.923 98.393 145.989 98.2898 146.121C98.1867 146.253 98.1351 146.437 98.1351 146.672C98.1351 146.904 98.1867 147.088 98.2898 147.223C98.393 147.355 98.5283 147.421 98.696 147.421ZM100.722 149.181C100.577 149.181 100.446 149.144 100.33 149.07C100.217 148.993 100.129 148.886 100.064 148.751C100.003 148.612 99.9724 148.451 99.9724 148.268C99.9724 148.084 100.003 147.924 100.064 147.789C100.129 147.65 100.217 147.544 100.33 147.47C100.446 147.392 100.577 147.354 100.722 147.354C100.87 147.354 100.999 147.392 101.109 147.47C101.221 147.544 101.309 147.65 101.37 147.789C101.434 147.924 101.466 148.084 101.466 148.268C101.466 148.451 101.434 148.612 101.37 148.751C101.309 148.886 101.221 148.993 101.109 149.07C100.999 149.144 100.87 149.181 100.722 149.181ZM100.722 149.017C100.889 149.017 101.025 148.951 101.128 148.819C101.231 148.683 101.283 148.5 101.283 148.268C101.283 148.035 101.231 147.853 101.128 147.721C101.025 147.586 100.889 147.518 100.722 147.518C100.551 147.518 100.414 147.584 100.311 147.716C100.208 147.848 100.156 148.032 100.156 148.268C100.156 148.503 100.208 148.687 100.311 148.819C100.414 148.951 100.551 149.017 100.722 149.017Z" fill="#303030"/>
<rect x="111.2" y="152.262" width="9.04051" height="35.5593" rx="4.52025" transform="rotate(-90 111.2 152.262)" fill="#F4F4F4"/>
<path d="M113.73 149.162V145.777H114.944C115.227 145.777 115.471 145.823 115.674 145.913C115.877 146.003 116.033 146.134 116.143 146.304C116.252 146.472 116.307 146.677 116.307 146.919C116.307 147.154 116.252 147.357 116.143 147.528C116.033 147.695 115.877 147.826 115.674 147.919C115.471 148.01 115.227 148.055 114.944 148.055H113.865L113.977 147.939V149.162H113.73ZM116.08 149.162L115.2 147.934H115.48L116.36 149.162H116.08ZM113.977 147.953L113.865 147.837H114.944C115.308 147.837 115.583 147.757 115.77 147.595C115.961 147.434 116.056 147.209 116.056 146.919C116.056 146.625 115.961 146.4 115.77 146.242C115.583 146.08 115.308 146 114.944 146H113.865L113.977 145.879V147.953ZM118.656 149.186C118.401 149.186 118.166 149.144 117.95 149.06C117.734 148.973 117.545 148.853 117.384 148.698C117.226 148.543 117.104 148.363 117.017 148.156C116.93 147.947 116.886 147.718 116.886 147.47C116.886 147.222 116.93 146.994 117.017 146.788C117.104 146.578 117.228 146.396 117.389 146.242C117.55 146.087 117.737 145.968 117.95 145.884C118.166 145.797 118.403 145.753 118.66 145.753C118.905 145.753 119.133 145.792 119.342 145.869C119.552 145.947 119.731 146.063 119.879 146.217L119.724 146.382C119.576 146.237 119.413 146.134 119.236 146.072C119.062 146.011 118.872 145.981 118.665 145.981C118.446 145.981 118.243 146.018 118.056 146.092C117.869 146.166 117.706 146.271 117.568 146.406C117.429 146.541 117.321 146.699 117.244 146.88C117.17 147.06 117.133 147.257 117.133 147.47C117.133 147.682 117.17 147.879 117.244 148.06C117.321 148.24 117.429 148.398 117.568 148.533C117.706 148.669 117.869 148.774 118.056 148.848C118.243 148.922 118.446 148.959 118.665 148.959C118.865 148.959 119.054 148.928 119.231 148.867C119.412 148.806 119.576 148.704 119.724 148.562L119.864 148.751C119.713 148.896 119.531 149.006 119.318 149.08C119.109 149.151 118.888 149.186 118.656 149.186ZM119.628 148.727V147.484H119.864V148.751L119.628 148.727ZM120.95 149.162V145.777H122.361C122.726 145.777 123.011 145.852 123.217 146C123.424 146.148 123.527 146.363 123.527 146.643C123.527 146.827 123.483 146.981 123.396 147.107C123.309 147.233 123.188 147.328 123.034 147.392C122.882 147.454 122.711 147.484 122.521 147.484L122.608 147.388C122.84 147.388 123.038 147.421 123.203 147.489C123.367 147.557 123.491 147.655 123.575 147.784C123.662 147.913 123.706 148.074 123.706 148.268C123.706 148.551 123.602 148.772 123.396 148.93C123.19 149.085 122.877 149.162 122.458 149.162H120.95ZM121.196 148.949H122.458C122.784 148.949 123.032 148.894 123.203 148.785C123.374 148.672 123.459 148.493 123.459 148.248C123.459 148.006 123.374 147.831 123.203 147.721C123.032 147.608 122.784 147.552 122.458 147.552H121.167V147.339H122.352C122.645 147.339 122.872 147.283 123.034 147.17C123.195 147.057 123.275 146.888 123.275 146.662C123.275 146.44 123.195 146.272 123.034 146.159C122.872 146.047 122.645 145.99 122.352 145.99H121.196V148.949ZM126.523 145.753C126.82 145.753 127.068 145.821 127.268 145.956C127.471 146.092 127.624 146.287 127.727 146.541C127.831 146.793 127.882 147.096 127.882 147.45C127.882 147.831 127.819 148.15 127.694 148.408C127.568 148.666 127.392 148.861 127.167 148.993C126.941 149.122 126.678 149.186 126.378 149.186C126.233 149.186 126.095 149.173 125.963 149.148C125.834 149.122 125.716 149.077 125.61 149.012L125.711 148.814C125.798 148.869 125.9 148.909 126.016 148.935C126.132 148.957 126.253 148.969 126.378 148.969C126.759 148.969 127.063 148.846 127.292 148.601C127.521 148.353 127.636 147.982 127.636 147.489C127.636 147.412 127.631 147.317 127.621 147.204C127.611 147.091 127.59 146.98 127.558 146.87L127.645 146.894C127.623 147.081 127.56 147.241 127.457 147.373C127.353 147.502 127.221 147.602 127.06 147.673C126.902 147.744 126.725 147.779 126.528 147.779C126.303 147.779 126.104 147.739 125.934 147.658C125.766 147.574 125.634 147.457 125.537 147.305C125.444 147.154 125.397 146.977 125.397 146.773C125.397 146.567 125.445 146.388 125.542 146.237C125.642 146.082 125.776 145.963 125.943 145.879C126.114 145.795 126.307 145.753 126.523 145.753ZM126.533 145.966C126.356 145.966 126.201 146 126.069 146.068C125.937 146.132 125.832 146.224 125.755 146.343C125.681 146.462 125.643 146.604 125.643 146.769C125.643 147.01 125.726 147.204 125.89 147.349C126.054 147.494 126.278 147.566 126.562 147.566C126.746 147.566 126.909 147.531 127.05 147.46C127.192 147.389 127.302 147.292 127.379 147.17C127.46 147.047 127.5 146.91 127.5 146.759C127.5 146.627 127.463 146.501 127.389 146.382C127.315 146.259 127.207 146.159 127.065 146.082C126.923 146.005 126.746 145.966 126.533 145.966ZM130.703 149.186C130.458 149.186 130.227 149.144 130.011 149.06C129.799 148.977 129.633 148.867 129.513 148.732L129.639 148.543C129.742 148.662 129.887 148.762 130.074 148.843C130.261 148.92 130.469 148.959 130.698 148.959C131.011 148.959 131.246 148.888 131.404 148.746C131.562 148.604 131.641 148.421 131.641 148.195C131.641 148.034 131.604 147.895 131.53 147.779C131.456 147.663 131.33 147.574 131.153 147.513C130.975 147.449 130.734 147.417 130.427 147.417H129.741L129.92 145.777H131.713V146H130.021L130.142 145.884L129.982 147.32L129.866 147.194H130.48C130.825 147.194 131.099 147.236 131.302 147.32C131.509 147.4 131.657 147.515 131.747 147.663C131.841 147.811 131.887 147.985 131.887 148.185C131.887 148.372 131.844 148.542 131.757 148.693C131.67 148.845 131.538 148.965 131.36 149.056C131.186 149.143 130.967 149.186 130.703 149.186ZM133.37 145.753C133.667 145.753 133.915 145.821 134.115 145.956C134.318 146.092 134.471 146.287 134.574 146.541C134.677 146.793 134.729 147.096 134.729 147.45C134.729 147.831 134.666 148.15 134.54 148.408C134.414 148.666 134.239 148.861 134.013 148.993C133.787 149.122 133.525 149.186 133.225 149.186C133.08 149.186 132.941 149.173 132.809 149.148C132.68 149.122 132.563 149.077 132.456 149.012L132.558 148.814C132.645 148.869 132.746 148.909 132.862 148.935C132.978 148.957 133.099 148.969 133.225 148.969C133.605 148.969 133.91 148.846 134.139 148.601C134.368 148.353 134.482 147.982 134.482 147.489C134.482 147.412 134.477 147.317 134.468 147.204C134.458 147.091 134.437 146.98 134.405 146.87L134.492 146.894C134.469 147.081 134.406 147.241 134.303 147.373C134.2 147.502 134.068 147.602 133.907 147.673C133.749 147.744 133.571 147.779 133.375 147.779C133.149 147.779 132.951 147.739 132.78 147.658C132.613 147.574 132.48 147.457 132.384 147.305C132.29 147.154 132.243 146.977 132.243 146.773C132.243 146.567 132.292 146.388 132.388 146.237C132.488 146.082 132.622 145.963 132.79 145.879C132.961 145.795 133.154 145.753 133.37 145.753ZM133.38 145.966C133.202 145.966 133.048 146 132.916 146.068C132.783 146.132 132.679 146.224 132.601 146.343C132.527 146.462 132.49 146.604 132.49 146.769C132.49 147.01 132.572 147.204 132.737 147.349C132.901 147.494 133.125 147.566 133.409 147.566C133.592 147.566 133.755 147.531 133.897 147.46C134.039 147.389 134.148 147.292 134.226 147.17C134.306 147.047 134.347 146.91 134.347 146.759C134.347 146.627 134.31 146.501 134.235 146.382C134.161 146.259 134.053 146.159 133.912 146.082C133.77 146.005 133.592 145.966 133.38 145.966ZM137.1 149.162L138.589 145.893L138.676 146H136.515L136.64 145.884V146.648H136.399V145.777H138.826V145.952L137.371 149.162H137.1ZM140.574 149.186C140.277 149.186 140.028 149.119 139.824 148.983C139.625 148.848 139.473 148.653 139.37 148.398C139.267 148.143 139.215 147.84 139.215 147.489C139.215 147.105 139.278 146.786 139.404 146.532C139.53 146.274 139.705 146.08 139.931 145.952C140.156 145.819 140.419 145.753 140.719 145.753C140.864 145.753 141.003 145.766 141.135 145.792C141.267 145.818 141.385 145.863 141.488 145.927L141.386 146.126C141.299 146.071 141.198 146.032 141.082 146.01C140.969 145.984 140.848 145.971 140.719 145.971C140.339 145.971 140.034 146.095 139.805 146.343C139.576 146.588 139.462 146.957 139.462 147.45C139.462 147.525 139.467 147.62 139.476 147.736C139.486 147.848 139.507 147.96 139.539 148.069L139.452 148.045C139.475 147.858 139.538 147.699 139.641 147.566C139.744 147.434 139.876 147.334 140.037 147.267C140.198 147.196 140.376 147.16 140.569 147.16C140.795 147.16 140.991 147.202 141.159 147.286C141.33 147.367 141.462 147.483 141.555 147.634C141.652 147.786 141.7 147.963 141.7 148.166C141.7 148.372 141.651 148.553 141.551 148.708C141.454 148.859 141.32 148.977 141.149 149.06C140.982 149.144 140.79 149.186 140.574 149.186ZM140.564 148.973C140.742 148.973 140.896 148.941 141.028 148.877C141.161 148.809 141.264 148.716 141.338 148.596C141.415 148.474 141.454 148.332 141.454 148.171C141.454 147.929 141.372 147.736 141.207 147.591C141.046 147.446 140.822 147.373 140.535 147.373C140.352 147.373 140.189 147.408 140.047 147.479C139.905 147.55 139.794 147.647 139.713 147.77C139.636 147.892 139.597 148.029 139.597 148.18C139.597 148.313 139.634 148.44 139.708 148.562C139.783 148.682 139.891 148.78 140.032 148.857C140.177 148.935 140.355 148.973 140.564 148.973Z" fill="#303030"/>
<path d="M69.2579 136.67V133.541H68.0275V132.958H71.1776V133.541H69.9473V136.67H69.2579ZM73.226 136.67V136.097L73.1888 135.975V134.973C73.1888 134.778 73.1305 134.628 73.0138 134.522C72.8972 134.412 72.7204 134.358 72.4835 134.358C72.3244 134.358 72.1671 134.382 72.0115 134.432C71.8595 134.481 71.7304 134.55 71.6244 134.639L71.3645 134.156C71.5166 134.039 71.6969 133.953 71.9055 133.896C72.1176 133.836 72.3368 133.806 72.5631 133.806C72.9732 133.806 73.2896 133.905 73.5123 134.103C73.7386 134.298 73.8517 134.6 73.8517 135.01V136.67H73.226ZM72.335 136.707C72.1229 136.707 71.9373 136.672 71.7782 136.601C71.6191 136.527 71.4953 136.426 71.407 136.299C71.3221 136.168 71.2797 136.021 71.2797 135.858C71.2797 135.699 71.3168 135.556 71.391 135.429C71.4688 135.302 71.5943 135.201 71.7676 135.127C71.9408 135.052 72.1706 135.015 72.457 135.015H73.279V135.455H72.5047C72.2784 135.455 72.1264 135.493 72.0486 135.567C71.9709 135.638 71.932 135.726 71.932 135.832C71.932 135.952 71.9797 136.048 72.0752 136.118C72.1706 136.189 72.3032 136.224 72.4729 136.224C72.6355 136.224 72.7805 136.187 72.9078 136.113C73.0386 136.039 73.1323 135.929 73.1888 135.784L73.3002 136.182C73.2366 136.348 73.1217 136.477 72.9555 136.569C72.7929 136.661 72.586 136.707 72.335 136.707ZM74.7025 136.67V133.838H75.3336V134.618L75.2593 134.389C75.3442 134.199 75.4768 134.054 75.6571 133.955C75.8409 133.856 76.069 133.806 76.3412 133.806V134.437C76.3129 134.43 76.2864 134.427 76.2617 134.427C76.2369 134.423 76.2122 134.421 76.1874 134.421C75.9364 134.421 75.7366 134.496 75.5881 134.644C75.4397 134.789 75.3654 135.006 75.3654 135.296V136.67H74.7025ZM78.4463 136.67V136.097L78.4092 135.975V134.973C78.4092 134.778 78.3509 134.628 78.2342 134.522C78.1175 134.412 77.9408 134.358 77.7039 134.358C77.5448 134.358 77.3875 134.382 77.2319 134.432C77.0799 134.481 76.9508 134.55 76.8448 134.639L76.5849 134.156C76.7369 134.039 76.9172 133.953 77.1258 133.896C77.338 133.836 77.5572 133.806 77.7834 133.806C78.1936 133.806 78.51 133.905 78.7327 134.103C78.959 134.298 79.0721 134.6 79.0721 135.01V136.67H78.4463ZM77.5554 136.707C77.3433 136.707 77.1577 136.672 76.9986 136.601C76.8395 136.527 76.7157 136.426 76.6273 136.299C76.5425 136.168 76.5001 136.021 76.5001 135.858C76.5001 135.699 76.5372 135.556 76.6114 135.429C76.6892 135.302 76.8147 135.201 76.988 135.127C77.1612 135.052 77.391 135.015 77.6774 135.015H78.4994V135.455H77.7251C77.4988 135.455 77.3468 135.493 77.269 135.567C77.1912 135.638 77.1524 135.726 77.1524 135.832C77.1524 135.952 77.2001 136.048 77.2955 136.118C77.391 136.189 77.5236 136.224 77.6933 136.224C77.8559 136.224 78.0009 136.187 78.1281 136.113C78.259 136.039 78.3527 135.929 78.4092 135.784L78.5206 136.182C78.4569 136.348 78.342 136.477 78.1759 136.569C78.0132 136.661 77.8064 136.707 77.5554 136.707ZM80.4969 136.67L79.4574 133.838H80.0832L80.9742 136.336H80.6772L81.6106 133.838H82.1674L83.0743 136.336H82.7826L83.7 133.838H84.2887L83.244 136.67H82.6076L81.7803 134.458H81.9765L81.1333 136.67H80.4969ZM85.9979 136.707C85.6833 136.707 85.4075 136.645 85.1706 136.521C84.9373 136.394 84.7552 136.221 84.6244 136.002C84.4971 135.782 84.4335 135.533 84.4335 135.254C84.4335 134.971 84.4953 134.722 84.6191 134.506C84.7463 134.287 84.9196 134.115 85.1388 133.992C85.3615 133.868 85.6143 133.806 85.8972 133.806C86.1729 133.806 86.4186 133.866 86.6343 133.986C86.85 134.107 87.0197 134.276 87.1434 134.496C87.2672 134.715 87.329 134.973 87.329 135.27C87.329 135.298 87.3273 135.33 87.3237 135.365C87.3237 135.401 87.322 135.434 87.3184 135.466H84.9585V135.026H86.9684L86.7085 135.164C86.7121 135.001 86.6785 134.858 86.6078 134.734C86.5371 134.61 86.4399 134.513 86.3161 134.443C86.1959 134.372 86.0562 134.336 85.8972 134.336C85.7345 134.336 85.5913 134.372 85.4676 134.443C85.3474 134.513 85.2519 134.612 85.1812 134.74C85.114 134.863 85.0805 135.01 85.0805 135.18V135.286C85.0805 135.455 85.1193 135.606 85.1971 135.737C85.2749 135.867 85.3845 135.968 85.5259 136.039C85.6673 136.11 85.83 136.145 86.0138 136.145C86.1729 136.145 86.3161 136.12 86.4434 136.071C86.5707 136.021 86.6838 135.943 86.7828 135.837L87.1381 136.246C87.0108 136.394 86.85 136.509 86.6555 136.59C86.4646 136.668 86.2454 136.707 85.9979 136.707ZM87.9658 136.67V133.838H88.5969V134.618L88.5226 134.389C88.6075 134.199 88.7401 134.054 88.9204 133.955C89.1042 133.856 89.3323 133.806 89.6045 133.806V134.437C89.5762 134.43 89.5497 134.427 89.5249 134.427C89.5002 134.423 89.4754 134.421 89.4507 134.421C89.1997 134.421 88.9999 134.496 88.8514 134.644C88.7029 134.789 88.6287 135.006 88.6287 135.296V136.67H87.9658ZM91.7096 136.67V136.097L91.6725 135.975V134.973C91.6725 134.778 91.6142 134.628 91.4975 134.522C91.3808 134.412 91.2041 134.358 90.9672 134.358C90.8081 134.358 90.6508 134.382 90.4952 134.432C90.3432 134.481 90.2141 134.55 90.1081 134.639L89.8482 134.156C90.0002 134.039 90.1805 133.953 90.3891 133.896C90.6013 133.836 90.8205 133.806 91.0467 133.806C91.4568 133.806 91.7733 133.905 91.996 134.103C92.2223 134.298 92.3354 134.6 92.3354 135.01V136.67H91.7096ZM90.8187 136.707C90.6066 136.707 90.4209 136.672 90.2618 136.601C90.1027 136.527 89.979 136.426 89.8906 136.299C89.8058 136.168 89.7633 136.021 89.7633 135.858C89.7633 135.699 89.8005 135.556 89.8747 135.429C89.9525 135.302 90.078 135.201 90.2512 135.127C90.4245 135.052 90.6543 135.015 90.9407 135.015H91.7627V135.455H90.9884C90.7621 135.455 90.6101 135.493 90.5323 135.567C90.4545 135.638 90.4156 135.726 90.4156 135.832C90.4156 135.952 90.4634 136.048 90.5588 136.118C90.6543 136.189 90.7869 136.224 90.9566 136.224C91.1192 136.224 91.2642 136.187 91.3914 136.113C91.5223 136.039 91.6159 135.929 91.6725 135.784L91.7839 136.182C91.7202 136.348 91.6053 136.477 91.4392 136.569C91.2765 136.661 91.0697 136.707 90.8187 136.707Z" fill="#5C5C5C"/>
<g filter="url(#filter3_d_8_575)">
<path d="M23.3059 56.3324H139.828V49.4161C139.828 41.5857 133.48 35.2378 125.65 35.2378H37.4841C29.6537 35.2378 23.3059 41.5857 23.3059 49.4161V56.3324Z" fill="white"/>
<path d="M23.3425 99.1906C23.3425 107.217 29.849 113.723 37.8752 113.723H52.391V56.3318H23.3425V99.1906Z" fill="#093B4D"/>
<rect width="29.0485" height="57.3914" transform="matrix(1 0 0 -1 52.3911 113.723)" fill="#146C8A"/>
<rect width="29.5934" height="57.3173" transform="matrix(1 0 0 -1 81.2552 113.649)" fill="#1D9ECA"/>
<path d="M110.719 113.723H125.173C133.233 113.723 139.768 107.189 139.768 99.1282V56.3318H110.719V113.723Z" fill="#28C8FE"/>
</g>
<circle cx="38.6249" cy="98.7729" r="1.75824" fill="white"/>
<path d="M51.5403 0.582489L110.579 0.582489V7.58557C110.579 10.2321 108.434 12.3775 105.787 12.3775H56.3322C53.6857 12.3775 51.5403 10.2321 51.5403 7.58558V0.582489Z" fill="#BFBFBF"/>
<rect x="2.59847" y="2.97843" width="157.435" height="295.208" rx="20.6052" stroke="#BFBFBF" stroke-width="4.7919"/>
<defs>
<filter id="filter0_d_8_575" x="57.5906" y="214.105" width="12.2931" height="12.2931" filterUnits="userSpaceOnUse" color-interpolation-filters="sRGB">
<feFlood flood-opacity="0" result="BackgroundImageFix"/>
<feColorMatrix in="SourceAlpha" type="matrix" values="0 0 0 0 0 0 0 0 0 0 0 0 0 0 0 0 0 0 127 0" result="hardAlpha"/>
<feOffset dy="0.938627"/>
<feGaussianBlur stdDeviation="0.938627"/>
<feComposite in2="hardAlpha" operator="out"/>
<feColorMatrix type="matrix" values="0 0 0 0 0 0 0 0 0 0 0 0 0 0 0 0 0 0 0.25 0"/>
<feBlend mode="normal" in2="BackgroundImageFix" result="effect1_dropShadow_8_575"/>
<feBlend mode="normal" in="SourceGraphic" in2="effect1_dropShadow_8_575" result="shape"/>
</filter>
<filter id="filter1_d_8_575" x="48.55" y="192.508" width="12.2931" height="12.2931" filterUnits="userSpaceOnUse" color-interpolation-filters="sRGB">
<feFlood flood-opacity="0" result="BackgroundImageFix"/>
<feColorMatrix in="SourceAlpha" type="matrix" values="0 0 0 0 0 0 0 0 0 0 0 0 0 0 0 0 0 0 127 0" result="hardAlpha"/>
<feOffset dy="0.938627"/>
<feGaussianBlur stdDeviation="0.938627"/>
<feComposite in2="hardAlpha" operator="out"/>
<feColorMatrix type="matrix" values="0 0 0 0 0 0 0 0 0 0 0 0 0 0 0 0 0 0 0.25 0"/>
<feBlend mode="normal" in2="BackgroundImageFix" result="effect1_dropShadow_8_575"/>
<feBlend mode="normal" in="SourceGraphic" in2="effect1_dropShadow_8_575" result="shape"/>
</filter>
<filter id="filter2_d_8_575" x="22.4331" y="170.911" width="12.2931" height="12.2931" filterUnits="userSpaceOnUse" color-interpolation-filters="sRGB">
<feFlood flood-opacity="0" result="BackgroundImageFix"/>
<feColorMatrix in="SourceAlpha" type="matrix" values="0 0 0 0 0 0 0 0 0 0 0 0 0 0 0 0 0 0 127 0" result="hardAlpha"/>
<feOffset dy="0.938627"/>
<feGaussianBlur stdDeviation="0.938627"/>
<feComposite in2="hardAlpha" operator="out"/>
<feColorMatrix type="matrix" values="0 0 0 0 0 0 0 0 0 0 0 0 0 0 0 0 0 0 0.25 0"/>
<feBlend mode="normal" in2="BackgroundImageFix" result="effect1_dropShadow_8_575"/>
<feBlend mode="normal" in="SourceGraphic" in2="effect1_dropShadow_8_575" result="shape"/>
</filter>
<filter id="filter3_d_8_575" x="18.7302" y="30.2462" width="130.665" height="92.6284" filterUnits="userSpaceOnUse" color-interpolation-filters="sRGB">
<feFlood flood-opacity="0" result="BackgroundImageFix"/>
<feColorMatrix in="SourceAlpha" type="matrix" values="0 0 0 0 0 0 0 0 0 0 0 0 0 0 0 0 0 0 127 0" result="hardAlpha"/>
<feOffset dx="2.49582" dy="2.07985"/>
<feGaussianBlur stdDeviation="3.53575"/>
<feComposite in2="hardAlpha" operator="out"/>
<feColorMatrix type="matrix" values="0 0 0 0 0 0 0 0 0 0 0 0 0 0 0 0 0 0 0.09 0"/>
<feBlend mode="normal" in2="BackgroundImageFix" result="effect1_dropShadow_8_575"/>
<feBlend mode="normal" in="SourceGraphic" in2="effect1_dropShadow_8_575" result="shape"/>
</filter>
<linearGradient id="paint0_linear_8_575" x1="17.6914" y1="219.326" x2="144.828" y2="219.043" gradientUnits="userSpaceOnUse">
<stop stop-color="#093B00"/>
<stop offset="1" stop-color="#093BFF"/>
</linearGradient>
<linearGradient id="paint1_linear_8_575" x1="17.6432" y1="197.604" x2="144.779" y2="197.321" gradientUnits="userSpaceOnUse">
<stop stop-color="#09004C"/>
<stop offset="1" stop-color="#09FF4C"/>
</linearGradient>
<linearGradient id="paint2_linear_8_575" x1="17.5962" y1="176.522" x2="148.885" y2="176.23" gradientUnits="userSpaceOnUse">
<stop stop-color="#003B4C"/>
<stop offset="1" stop-color="#FF3B4C"/>
</linearGradient>
</defs>
</svg>
