<svg width="26" height="26" viewBox="0 0 26 26" fill="none" xmlns="http://www.w3.org/2000/svg">
<path d="M15.4715 12.9728L25.0645 3.40544L25.0782 3.39179L25.0908 3.37714C25.3695 3.05258 25.5153 2.63485 25.4987 2.20741C25.4822 1.77997 25.3045 1.37475 25.0016 1.07266C24.6987 0.770613 24.293 0.593887 23.8656 0.57742C23.4381 0.560954 23.02 0.705938 22.6947 0.983733L22.68 0.996273L22.6664 1.00991L13.0717 10.579L3.47675 0.998152L3.47653 0.99794C3.1567 0.67896 2.72319 0.5 2.27145 0.5C1.81971 0.5 1.38621 0.67896 1.06637 0.99794C0.746492 1.31696 0.566542 1.74994 0.566542 2.20169C0.566542 2.65344 0.746492 3.08641 1.06637 3.40544L1.06659 3.40565L10.671 12.9728L1.07897 22.5276C0.90818 22.6772 0.769044 22.8594 0.66992 23.0638C0.567762 23.2744 0.510327 23.5038 0.501269 23.7377C0.492211 23.9715 0.531727 24.2047 0.617306 24.4226C0.702884 24.6404 0.832653 24.8382 0.998392 25.0035C1.16413 25.1688 1.36226 25.2981 1.5803 25.3832C1.79834 25.4684 2.03164 25.5077 2.26556 25.4987C2.49949 25.4897 2.72907 25.4326 2.9399 25.3309C3.14438 25.2322 3.32697 25.0936 3.47691 24.9234L13.0712 15.3662L22.6664 24.9357L22.68 24.9493L22.6947 24.9619C23.02 25.2397 23.4381 25.3846 23.8656 25.3682C24.293 25.3517 24.6987 25.175 25.0016 24.8729C25.3045 24.5709 25.4822 24.1656 25.4987 23.7382C25.5153 23.3108 25.3695 22.893 25.0908 22.5685L25.0782 22.5538L25.0645 22.5402L15.4715 12.9728Z" fill="#AA75FF" stroke="#AA75FF"></path>
</svg>
