<svg width="1920" height="1080" viewBox="0 0 1920 1080" fill="none" xmlns="http://www.w3.org/2000/svg">
<g clip-path="url('#clip0_56_1920')">
<rect width="1920" height="1080" rx="70" fill="white"></rect>
<rect width="1920" height="1080" fill="#0680F9"></rect>
<g opacity="0.7" filter="url('#filter0_f_56_1920')">
<path d="M4.87805 1080V510.662L154.816 563.669L321.793 795.331L447.878 985.765L575.61 1053.85L660.976 1064.29L703.415 1053.85L777.561 1014.36L889.268 845.136L982.927 609.246L1140 334.383L1212.68 297.461L1292.98 279L1920 367.715V1080H4.87805Z" fill="url('#paint0_linear_56_1920')"></path>
<path d="M0 516.633C320 516.633 320 1061.54 640 1061.54C960 1061.54 960 283.102 1280 283.102C1600 283.102 1600 360.946 1920 360.946M1920 360.946V360.946Z" stroke="white" stroke-width="18.4926"></path>
</g>
<path d="M356.416 481.44C354.871 478.593 352.634 476.438 349.706 474.974C346.859 473.429 343.484 472.656 339.58 472.656C332.829 472.656 327.421 474.893 323.354 479.366C319.287 483.758 317.254 489.655 317.254 497.056C317.254 504.945 319.369 511.127 323.598 515.6C327.909 519.992 333.805 522.188 341.288 522.188C346.412 522.188 350.723 520.887 354.22 518.284C357.799 515.681 360.401 511.94 362.028 507.06H335.554V491.688H380.938V511.086C379.393 516.291 376.749 521.131 373.008 525.604C369.348 530.077 364.671 533.697 358.978 536.462C353.285 539.227 346.859 540.61 339.702 540.61C331.243 540.61 323.679 538.78 317.01 535.12C310.422 531.379 305.257 526.214 301.516 519.626C297.856 513.038 296.026 505.515 296.026 497.056C296.026 488.597 297.856 481.074 301.516 474.486C305.257 467.817 310.422 462.652 317.01 458.992C323.598 455.251 331.121 453.38 339.58 453.38C349.828 453.38 358.449 455.861 365.444 460.822C372.52 465.783 377.197 472.656 379.474 481.44H356.416ZM423.482 540.976C416.812 540.976 410.794 539.553 405.426 536.706C400.139 533.859 395.95 529.793 392.86 524.506C389.85 519.219 388.346 513.038 388.346 505.962C388.346 498.967 389.891 492.827 392.982 487.54C396.072 482.172 400.302 478.065 405.67 475.218C411.038 472.371 417.056 470.948 423.726 470.948C430.395 470.948 436.414 472.371 441.782 475.218C447.15 478.065 451.379 482.172 454.47 487.54C457.56 492.827 459.106 498.967 459.106 505.962C459.106 512.957 457.52 519.138 454.348 524.506C451.257 529.793 446.987 533.859 441.538 536.706C436.17 539.553 430.151 540.976 423.482 540.976ZM423.482 522.92C427.467 522.92 430.842 521.456 433.608 518.528C436.454 515.6 437.878 511.411 437.878 505.962C437.878 500.513 436.495 496.324 433.73 493.396C431.046 490.468 427.711 489.004 423.726 489.004C419.659 489.004 416.284 490.468 413.6 493.396C410.916 496.243 409.574 500.431 409.574 505.962C409.574 511.411 410.875 515.6 413.478 518.528C416.162 521.456 419.496 522.92 423.482 522.92ZM483.105 530.972H512.873V540H472.003V454.966H483.105V530.972ZM585.664 504.01C585.664 506.125 585.542 508.361 585.298 510.72H531.862C532.268 517.308 534.505 522.473 538.572 526.214C542.72 529.874 547.722 531.704 553.578 531.704C558.376 531.704 562.362 530.606 565.534 528.41C568.787 526.133 571.064 523.123 572.366 519.382H584.322C582.532 525.807 578.954 531.053 573.586 535.12C568.218 539.105 561.548 541.098 553.578 541.098C547.234 541.098 541.54 539.675 536.498 536.828C531.536 533.981 527.632 529.955 524.786 524.75C521.939 519.463 520.516 513.363 520.516 506.45C520.516 499.537 521.898 493.477 524.664 488.272C527.429 483.067 531.292 479.081 536.254 476.316C541.296 473.469 547.071 472.046 553.578 472.046C559.922 472.046 565.534 473.429 570.414 476.194C575.294 478.959 579.035 482.782 581.638 487.662C584.322 492.461 585.664 497.91 585.664 504.01ZM574.196 501.692C574.196 497.463 573.26 493.843 571.39 490.834C569.519 487.743 566.957 485.425 563.704 483.88C560.532 482.253 556.994 481.44 553.09 481.44C547.478 481.44 542.679 483.229 538.694 486.808C534.79 490.387 532.553 495.348 531.984 501.692H574.196ZM596.17 506.328C596.17 499.496 597.552 493.518 600.318 488.394C603.083 483.189 606.865 479.163 611.664 476.316C616.544 473.469 621.952 472.046 627.89 472.046C633.746 472.046 638.829 473.307 643.14 475.828C647.45 478.349 650.663 481.521 652.778 485.344V473.144H664.002V540H652.778V527.556C650.582 531.46 647.288 534.713 642.896 537.316C638.585 539.837 633.542 541.098 627.768 541.098C621.83 541.098 616.462 539.634 611.664 536.706C606.865 533.778 603.083 529.671 600.318 524.384C597.552 519.097 596.17 513.079 596.17 506.328ZM652.778 506.45C652.778 501.407 651.761 497.015 649.728 493.274C647.694 489.533 644.929 486.686 641.432 484.734C638.016 482.701 634.234 481.684 630.086 481.684C625.938 481.684 622.156 482.66 618.74 484.612C615.324 486.564 612.599 489.411 610.566 493.152C608.532 496.893 607.516 501.285 607.516 506.328C607.516 511.452 608.532 515.925 610.566 519.748C612.599 523.489 615.324 526.377 618.74 528.41C622.156 530.362 625.938 531.338 630.086 531.338C634.234 531.338 638.016 530.362 641.432 528.41C644.929 526.377 647.694 523.489 649.728 519.748C651.761 515.925 652.778 511.493 652.778 506.45ZM678.615 506.328C678.615 499.496 679.998 493.518 682.763 488.394C685.528 483.189 689.31 479.163 694.109 476.316C698.989 473.469 704.438 472.046 710.457 472.046C715.662 472.046 720.502 473.266 724.975 475.706C729.448 478.065 732.864 481.196 735.223 485.1V449.72H746.447V540H735.223V527.434C733.027 531.419 729.774 534.713 725.463 537.316C721.152 539.837 716.11 541.098 710.335 541.098C704.398 541.098 698.989 539.634 694.109 536.706C689.31 533.778 685.528 529.671 682.763 524.384C679.998 519.097 678.615 513.079 678.615 506.328ZM735.223 506.45C735.223 501.407 734.206 497.015 732.173 493.274C730.14 489.533 727.374 486.686 723.877 484.734C720.461 482.701 716.679 481.684 712.531 481.684C708.383 481.684 704.601 482.66 701.185 484.612C697.769 486.564 695.044 489.411 693.011 493.152C690.978 496.893 689.961 501.285 689.961 506.328C689.961 511.452 690.978 515.925 693.011 519.748C695.044 523.489 697.769 526.377 701.185 528.41C704.601 530.362 708.383 531.338 712.531 531.338C716.679 531.338 720.461 530.362 723.877 528.41C727.374 526.377 730.14 523.489 732.173 519.748C734.206 515.925 735.223 511.493 735.223 506.45Z" fill="white"></path>
<path d="M320.362 622.01H302.73L299.482 631H293.914L308.53 590.806H314.62L329.178 631H323.61L320.362 622.01ZM318.854 617.718L311.546 597.302L304.238 617.718H318.854ZM389.233 598.636C391.708 598.636 393.912 599.158 395.845 600.202C397.778 601.207 399.306 602.735 400.427 604.784C401.548 606.833 402.109 609.327 402.109 612.266V631H396.889V613.02C396.889 609.849 396.096 607.433 394.511 605.77C392.964 604.069 390.857 603.218 388.189 603.218C385.444 603.218 383.259 604.107 381.635 605.886C380.011 607.626 379.199 610.159 379.199 613.484V631H373.979V613.02C373.979 609.849 373.186 607.433 371.601 605.77C370.054 604.069 367.947 603.218 365.279 603.218C362.534 603.218 360.349 604.107 358.725 605.886C357.101 607.626 356.289 610.159 356.289 613.484V631H351.011V599.216H356.289V603.798C357.333 602.135 358.725 600.859 360.465 599.97C362.244 599.081 364.196 598.636 366.323 598.636C368.991 598.636 371.35 599.235 373.399 600.434C375.448 601.633 376.976 603.392 377.981 605.712C378.87 603.469 380.34 601.729 382.389 600.492C384.438 599.255 386.72 598.636 389.233 598.636ZM424.629 631.522C421.651 631.522 418.945 630.845 416.509 629.492C414.111 628.139 412.217 626.225 410.825 623.75C409.471 621.237 408.795 618.337 408.795 615.05C408.795 611.802 409.491 608.941 410.883 606.466C412.313 603.953 414.247 602.039 416.683 600.724C419.119 599.371 421.845 598.694 424.861 598.694C427.877 598.694 430.603 599.371 433.039 600.724C435.475 602.039 437.389 603.933 438.781 606.408C440.211 608.883 440.927 611.763 440.927 615.05C440.927 618.337 440.192 621.237 438.723 623.75C437.292 626.225 435.339 628.139 432.865 629.492C430.39 630.845 427.645 631.522 424.629 631.522ZM424.629 626.882C426.523 626.882 428.302 626.437 429.965 625.548C431.627 624.659 432.961 623.325 433.967 621.546C435.011 619.767 435.533 617.602 435.533 615.05C435.533 612.498 435.03 610.333 434.025 608.554C433.019 606.775 431.705 605.461 430.081 604.61C428.457 603.721 426.697 603.276 424.803 603.276C422.869 603.276 421.091 603.721 419.467 604.61C417.881 605.461 416.605 606.775 415.639 608.554C414.672 610.333 414.189 612.498 414.189 615.05C414.189 617.641 414.653 619.825 415.581 621.604C416.547 623.383 417.823 624.717 419.409 625.606C420.994 626.457 422.734 626.882 424.629 626.882ZM445.894 614.992C445.894 611.744 446.552 608.902 447.866 606.466C449.181 603.991 450.979 602.077 453.26 600.724C455.58 599.371 458.171 598.694 461.032 598.694C463.507 598.694 465.808 599.274 467.934 600.434C470.061 601.555 471.685 603.044 472.806 604.9V588.08H478.142V631H472.806V625.026C471.762 626.921 470.216 628.487 468.166 629.724C466.117 630.923 463.72 631.522 460.974 631.522C458.152 631.522 455.58 630.826 453.26 629.434C450.979 628.042 449.181 626.089 447.866 623.576C446.552 621.063 445.894 618.201 445.894 614.992ZM472.806 615.05C472.806 612.653 472.323 610.565 471.356 608.786C470.39 607.007 469.075 605.654 467.412 604.726C465.788 603.759 463.99 603.276 462.018 603.276C460.046 603.276 458.248 603.74 456.624 604.668C455 605.596 453.705 606.949 452.738 608.728C451.772 610.507 451.288 612.595 451.288 614.992C451.288 617.428 451.772 619.555 452.738 621.372C453.705 623.151 455 624.523 456.624 625.49C458.248 626.418 460.046 626.882 462.018 626.882C463.99 626.882 465.788 626.418 467.412 625.49C469.075 624.523 470.39 623.151 471.356 621.372C472.323 619.555 472.806 617.447 472.806 615.05ZM516.062 613.89C516.062 614.895 516.004 615.959 515.888 617.08H490.484C490.677 620.212 491.74 622.667 493.674 624.446C495.646 626.186 498.024 627.056 500.808 627.056C503.089 627.056 504.984 626.534 506.492 625.49C508.038 624.407 509.121 622.977 509.74 621.198H515.424C514.573 624.253 512.872 626.747 510.32 628.68C507.768 630.575 504.597 631.522 500.808 631.522C497.792 631.522 495.085 630.845 492.688 629.492C490.329 628.139 488.473 626.225 487.12 623.75C485.766 621.237 485.09 618.337 485.09 615.05C485.09 611.763 485.747 608.883 487.062 606.408C488.376 603.933 490.213 602.039 492.572 600.724C494.969 599.371 497.714 598.694 500.808 598.694C503.824 598.694 506.492 599.351 508.812 600.666C511.132 601.981 512.91 603.798 514.148 606.118C515.424 608.399 516.062 610.99 516.062 613.89ZM510.61 612.788C510.61 610.777 510.165 609.057 509.276 607.626C508.386 606.157 507.168 605.055 505.622 604.32C504.114 603.547 502.432 603.16 500.576 603.16C497.908 603.16 495.626 604.011 493.732 605.712C491.876 607.413 490.812 609.772 490.542 612.788H510.61ZM528.307 604.378C529.235 602.561 530.549 601.149 532.251 600.144C533.991 599.139 536.098 598.636 538.573 598.636V604.088H537.181C531.265 604.088 528.307 607.297 528.307 613.716V631H523.029V599.216H528.307V604.378ZM560.151 598.636C564.018 598.636 567.15 599.815 569.547 602.174C571.945 604.494 573.143 607.858 573.143 612.266V631H567.923V613.02C567.923 609.849 567.131 607.433 565.545 605.77C563.96 604.069 561.795 603.218 559.049 603.218C556.265 603.218 554.042 604.088 552.379 605.828C550.755 607.568 549.943 610.101 549.943 613.426V631H544.665V599.216H549.943V603.74C550.987 602.116 552.399 600.859 554.177 599.97C555.995 599.081 557.986 598.636 560.151 598.636ZM602.506 626.708H616.658V631H597.228V590.574H602.506V626.708ZM651.263 613.89C651.263 614.895 651.205 615.959 651.089 617.08H625.685C625.878 620.212 626.942 622.667 628.875 624.446C630.847 626.186 633.225 627.056 636.009 627.056C638.29 627.056 640.185 626.534 641.693 625.49C643.24 624.407 644.322 622.977 644.941 621.198H650.625C649.774 624.253 648.073 626.747 645.521 628.68C642.969 630.575 639.798 631.522 636.009 631.522C632.993 631.522 630.286 630.845 627.889 629.492C625.53 628.139 623.674 626.225 622.321 623.75C620.968 621.237 620.291 618.337 620.291 615.05C620.291 611.763 620.948 608.883 622.263 606.408C623.578 603.933 625.414 602.039 627.773 600.724C630.17 599.371 632.916 598.694 636.009 598.694C639.025 598.694 641.693 599.351 644.013 600.666C646.333 601.981 648.112 603.798 649.349 606.118C650.625 608.399 651.263 610.99 651.263 613.89ZM645.811 612.788C645.811 610.777 645.366 609.057 644.477 607.626C643.588 606.157 642.37 605.055 640.823 604.32C639.315 603.547 637.633 603.16 635.777 603.16C633.109 603.16 630.828 604.011 628.933 605.712C627.077 607.413 626.014 609.772 625.743 612.788H645.811ZM656.258 614.992C656.258 611.744 656.915 608.902 658.23 606.466C659.544 603.991 661.342 602.077 663.624 600.724C665.944 599.371 668.515 598.694 671.338 598.694C674.122 598.694 676.538 599.293 678.588 600.492C680.637 601.691 682.164 603.199 683.17 605.016V599.216H688.506V631H683.17V625.084C682.126 626.94 680.56 628.487 678.472 629.724C676.422 630.923 674.025 631.522 671.28 631.522C668.457 631.522 665.905 630.826 663.624 629.434C661.342 628.042 659.544 626.089 658.23 623.576C656.915 621.063 656.258 618.201 656.258 614.992ZM683.17 615.05C683.17 612.653 682.686 610.565 681.72 608.786C680.753 607.007 679.438 605.654 677.776 604.726C676.152 603.759 674.354 603.276 672.382 603.276C670.41 603.276 668.612 603.74 666.988 604.668C665.364 605.596 664.068 606.949 663.102 608.728C662.135 610.507 661.652 612.595 661.652 614.992C661.652 617.428 662.135 619.555 663.102 621.372C664.068 623.151 665.364 624.523 666.988 625.49C668.612 626.418 670.41 626.882 672.382 626.882C674.354 626.882 676.152 626.418 677.776 625.49C679.438 624.523 680.753 623.151 681.72 621.372C682.686 619.555 683.17 617.447 683.17 615.05ZM695.453 614.992C695.453 611.744 696.11 608.902 697.425 606.466C698.74 603.991 700.538 602.077 702.819 600.724C705.139 599.371 707.73 598.694 710.591 598.694C713.066 598.694 715.366 599.274 717.493 600.434C719.62 601.555 721.244 603.044 722.365 604.9V588.08H727.701V631H722.365V625.026C721.321 626.921 719.774 628.487 717.725 629.724C715.676 630.923 713.278 631.522 710.533 631.522C707.71 631.522 705.139 630.826 702.819 629.434C700.538 628.042 698.74 626.089 697.425 623.576C696.11 621.063 695.453 618.201 695.453 614.992ZM722.365 615.05C722.365 612.653 721.882 610.565 720.915 608.786C719.948 607.007 718.634 605.654 716.971 604.726C715.347 603.759 713.549 603.276 711.577 603.276C709.605 603.276 707.807 603.74 706.183 604.668C704.559 605.596 703.264 606.949 702.297 608.728C701.33 610.507 700.847 612.595 700.847 614.992C700.847 617.428 701.33 619.555 702.297 621.372C703.264 623.151 704.559 624.523 706.183 625.49C707.807 626.418 709.605 626.882 711.577 626.882C713.549 626.882 715.347 626.418 716.971 625.49C718.634 624.523 719.948 623.151 720.915 621.372C721.882 619.555 722.365 617.447 722.365 615.05ZM793.089 590.864V631H787.811V601.072L774.471 631H770.759L757.361 601.014V631H752.083V590.864H757.767L772.615 624.04L787.463 590.864H793.089ZM800.068 614.992C800.068 611.744 800.726 608.902 802.04 606.466C803.355 603.991 805.153 602.077 807.434 600.724C809.754 599.371 812.326 598.694 815.148 598.694C817.932 598.694 820.349 599.293 822.398 600.492C824.448 601.691 825.975 603.199 826.98 605.016V599.216H832.316V631H826.98V625.084C825.936 626.94 824.37 628.487 822.282 629.724C820.233 630.923 817.836 631.522 815.09 631.522C812.268 631.522 809.716 630.826 807.434 629.434C805.153 628.042 803.355 626.089 802.04 623.576C800.726 621.063 800.068 618.201 800.068 614.992ZM826.98 615.05C826.98 612.653 826.497 610.565 825.53 608.786C824.564 607.007 823.249 605.654 821.586 604.726C819.962 603.759 818.164 603.276 816.192 603.276C814.22 603.276 812.422 603.74 810.798 604.668C809.174 605.596 807.879 606.949 806.912 608.728C805.946 610.507 805.462 612.595 805.462 614.992C805.462 617.428 805.946 619.555 806.912 621.372C807.879 623.151 809.174 624.523 810.798 625.49C812.422 626.418 814.22 626.882 816.192 626.882C818.164 626.882 819.962 626.418 821.586 625.49C823.249 624.523 824.564 623.151 825.53 621.372C826.497 619.555 826.98 617.447 826.98 615.05ZM856.722 598.636C860.588 598.636 863.72 599.815 866.118 602.174C868.515 604.494 869.714 607.858 869.714 612.266V631H864.494V613.02C864.494 609.849 863.701 607.433 862.116 605.77C860.53 604.069 858.365 603.218 855.62 603.218C852.836 603.218 850.612 604.088 848.95 605.828C847.326 607.568 846.514 610.101 846.514 613.426V631H841.236V599.216H846.514V603.74C847.558 602.116 848.969 600.859 850.748 599.97C852.565 599.081 854.556 598.636 856.722 598.636ZM876.363 614.992C876.363 611.744 877.02 608.902 878.335 606.466C879.65 603.991 881.448 602.077 883.729 600.724C886.049 599.371 888.62 598.694 891.443 598.694C894.227 598.694 896.644 599.293 898.693 600.492C900.742 601.691 902.27 603.199 903.275 605.016V599.216H908.611V631H903.275V625.084C902.231 626.94 900.665 628.487 898.577 629.724C896.528 630.923 894.13 631.522 891.385 631.522C888.562 631.522 886.01 630.826 883.729 629.434C881.448 628.042 879.65 626.089 878.335 623.576C877.02 621.063 876.363 618.201 876.363 614.992ZM903.275 615.05C903.275 612.653 902.792 610.565 901.825 608.786C900.858 607.007 899.544 605.654 897.881 604.726C896.257 603.759 894.459 603.276 892.487 603.276C890.515 603.276 888.717 603.74 887.093 604.668C885.469 605.596 884.174 606.949 883.207 608.728C882.24 610.507 881.757 612.595 881.757 614.992C881.757 617.428 882.24 619.555 883.207 621.372C884.174 623.151 885.469 624.523 887.093 625.49C888.717 626.418 890.515 626.882 892.487 626.882C894.459 626.882 896.257 626.418 897.881 625.49C899.544 624.523 900.858 623.151 901.825 621.372C902.792 619.555 903.275 617.447 903.275 615.05ZM930.638 598.694C933.384 598.694 935.781 599.293 937.83 600.492C939.918 601.691 941.465 603.199 942.47 605.016V599.216H947.806V631.696C947.806 634.596 947.188 637.167 945.95 639.41C944.713 641.691 942.934 643.47 940.614 644.746C938.333 646.022 935.665 646.66 932.61 646.66C928.434 646.66 924.954 645.674 922.17 643.702C919.386 641.73 917.743 639.043 917.24 635.64H922.46C923.04 637.573 924.239 639.12 926.056 640.28C927.874 641.479 930.058 642.078 932.61 642.078C935.51 642.078 937.869 641.169 939.686 639.352C941.542 637.535 942.47 634.983 942.47 631.696V625.026C941.426 626.882 939.88 628.429 937.83 629.666C935.781 630.903 933.384 631.522 930.638 631.522C927.816 631.522 925.244 630.826 922.924 629.434C920.643 628.042 918.845 626.089 917.53 623.576C916.216 621.063 915.558 618.201 915.558 614.992C915.558 611.744 916.216 608.902 917.53 606.466C918.845 603.991 920.643 602.077 922.924 600.724C925.244 599.371 927.816 598.694 930.638 598.694ZM942.47 615.05C942.47 612.653 941.987 610.565 941.02 608.786C940.054 607.007 938.739 605.654 937.076 604.726C935.452 603.759 933.654 603.276 931.682 603.276C929.71 603.276 927.912 603.74 926.288 604.668C924.664 605.596 923.369 606.949 922.402 608.728C921.436 610.507 920.952 612.595 920.952 614.992C920.952 617.428 921.436 619.555 922.402 621.372C923.369 623.151 924.664 624.523 926.288 625.49C927.912 626.418 929.71 626.882 931.682 626.882C933.654 626.882 935.452 626.418 937.076 625.49C938.739 624.523 940.054 623.151 941.02 621.372C941.987 619.555 942.47 617.447 942.47 615.05ZM985.726 613.89C985.726 614.895 985.668 615.959 985.552 617.08H960.148C960.341 620.212 961.404 622.667 963.338 624.446C965.31 626.186 967.688 627.056 970.472 627.056C972.753 627.056 974.648 626.534 976.156 625.49C977.702 624.407 978.785 622.977 979.404 621.198H985.088C984.237 624.253 982.536 626.747 979.984 628.68C977.432 630.575 974.261 631.522 970.472 631.522C967.456 631.522 964.749 630.845 962.352 629.492C959.993 628.139 958.137 626.225 956.784 623.75C955.43 621.237 954.754 618.337 954.754 615.05C954.754 611.763 955.411 608.883 956.726 606.408C958.04 603.933 959.877 602.039 962.236 600.724C964.633 599.371 967.378 598.694 970.472 598.694C973.488 598.694 976.156 599.351 978.476 600.666C980.796 601.981 982.574 603.798 983.812 606.118C985.088 608.399 985.726 610.99 985.726 613.89ZM980.274 612.788C980.274 610.777 979.829 609.057 978.94 607.626C978.05 606.157 976.832 605.055 975.286 604.32C973.778 603.547 972.096 603.16 970.24 603.16C967.572 603.16 965.29 604.011 963.396 605.712C961.54 607.413 960.476 609.772 960.206 612.788H980.274ZM1030.91 598.636C1033.39 598.636 1035.59 599.158 1037.53 600.202C1039.46 601.207 1040.99 602.735 1042.11 604.784C1043.23 606.833 1043.79 609.327 1043.79 612.266V631H1038.57V613.02C1038.57 609.849 1037.78 607.433 1036.19 605.77C1034.65 604.069 1032.54 603.218 1029.87 603.218C1027.13 603.218 1024.94 604.107 1023.32 605.886C1021.69 607.626 1020.88 610.159 1020.88 613.484V631H1015.66V613.02C1015.66 609.849 1014.87 607.433 1013.28 605.77C1011.74 604.069 1009.63 603.218 1006.96 603.218C1004.22 603.218 1002.03 604.107 1000.41 605.886C998.783 607.626 997.971 610.159 997.971 613.484V631H992.693V599.216H997.971V603.798C999.015 602.135 1000.41 600.859 1002.15 599.97C1003.93 599.081 1005.88 598.636 1008 598.636C1010.67 598.636 1013.03 599.235 1015.08 600.434C1017.13 601.633 1018.66 603.392 1019.66 605.712C1020.55 603.469 1022.02 601.729 1024.07 600.492C1026.12 599.255 1028.4 598.636 1030.91 598.636ZM1081.45 613.89C1081.45 614.895 1081.39 615.959 1081.27 617.08H1055.87C1056.06 620.212 1057.13 622.667 1059.06 624.446C1061.03 626.186 1063.41 627.056 1066.19 627.056C1068.48 627.056 1070.37 626.534 1071.88 625.49C1073.43 624.407 1074.51 622.977 1075.13 621.198H1080.81C1079.96 624.253 1078.26 626.747 1075.71 628.68C1073.15 630.575 1069.98 631.522 1066.19 631.522C1063.18 631.522 1060.47 630.845 1058.07 629.492C1055.72 628.139 1053.86 626.225 1052.51 623.75C1051.15 621.237 1050.48 618.337 1050.48 615.05C1050.48 611.763 1051.13 608.883 1052.45 606.408C1053.76 603.933 1055.6 602.039 1057.96 600.724C1060.36 599.371 1063.1 598.694 1066.19 598.694C1069.21 598.694 1071.88 599.351 1074.2 600.666C1076.52 601.981 1078.3 603.798 1079.53 606.118C1080.81 608.399 1081.45 610.99 1081.45 613.89ZM1076 612.788C1076 610.777 1075.55 609.057 1074.66 607.626C1073.77 606.157 1072.56 605.055 1071.01 604.32C1069.5 603.547 1067.82 603.16 1065.96 603.16C1063.29 603.16 1061.01 604.011 1059.12 605.712C1057.26 607.413 1056.2 609.772 1055.93 612.788H1076ZM1103.9 598.636C1107.77 598.636 1110.9 599.815 1113.3 602.174C1115.69 604.494 1116.89 607.858 1116.89 612.266V631H1111.67V613.02C1111.67 609.849 1110.88 607.433 1109.3 605.77C1107.71 604.069 1105.54 603.218 1102.8 603.218C1100.02 603.218 1097.79 604.088 1096.13 605.828C1094.51 607.568 1093.69 610.101 1093.69 613.426V631H1088.42V599.216H1093.69V603.74C1094.74 602.116 1096.15 600.859 1097.93 599.97C1099.74 599.081 1101.74 598.636 1103.9 598.636ZM1131.95 603.566V622.3C1131.95 623.847 1132.28 624.949 1132.94 625.606C1133.6 626.225 1134.74 626.534 1136.36 626.534H1140.25V631H1135.49C1132.55 631 1130.35 630.323 1128.88 628.97C1127.41 627.617 1126.67 625.393 1126.67 622.3V603.566H1122.56V599.216H1126.67V591.212H1131.95V599.216H1140.25V603.566H1131.95ZM1186.99 590.574V594.866H1175.97V631H1170.69V594.866H1159.61V590.574H1186.99ZM1207.35 631.522C1204.37 631.522 1201.66 630.845 1199.23 629.492C1196.83 628.139 1194.93 626.225 1193.54 623.75C1192.19 621.237 1191.51 618.337 1191.51 615.05C1191.51 611.802 1192.21 608.941 1193.6 606.466C1195.03 603.953 1196.96 602.039 1199.4 600.724C1201.84 599.371 1204.56 598.694 1207.58 598.694C1210.59 598.694 1213.32 599.371 1215.76 600.724C1218.19 602.039 1220.11 603.933 1221.5 606.408C1222.93 608.883 1223.64 611.763 1223.64 615.05C1223.64 618.337 1222.91 621.237 1221.44 623.75C1220.01 626.225 1218.06 628.139 1215.58 629.492C1213.11 630.845 1210.36 631.522 1207.35 631.522ZM1207.35 626.882C1209.24 626.882 1211.02 626.437 1212.68 625.548C1214.34 624.659 1215.68 623.325 1216.68 621.546C1217.73 619.767 1218.25 617.602 1218.25 615.05C1218.25 612.498 1217.75 610.333 1216.74 608.554C1215.74 606.775 1214.42 605.461 1212.8 604.61C1211.17 603.721 1209.41 603.276 1207.52 603.276C1205.59 603.276 1203.81 603.721 1202.18 604.61C1200.6 605.461 1199.32 606.775 1198.36 608.554C1197.39 610.333 1196.91 612.498 1196.91 615.05C1196.91 617.641 1197.37 619.825 1198.3 621.604C1199.26 623.383 1200.54 624.717 1202.13 625.606C1203.71 626.457 1205.45 626.882 1207.35 626.882ZM1244.45 631.522C1241.47 631.522 1238.76 630.845 1236.33 629.492C1233.93 628.139 1232.03 626.225 1230.64 623.75C1229.29 621.237 1228.61 618.337 1228.61 615.05C1228.61 611.802 1229.31 608.941 1230.7 606.466C1232.13 603.953 1234.06 602.039 1236.5 600.724C1238.94 599.371 1241.66 598.694 1244.68 598.694C1247.69 598.694 1250.42 599.371 1252.86 600.724C1255.29 602.039 1257.21 603.933 1258.6 606.408C1260.03 608.883 1260.74 611.763 1260.74 615.05C1260.74 618.337 1260.01 621.237 1258.54 623.75C1257.11 626.225 1255.16 628.139 1252.68 629.492C1250.21 630.845 1247.46 631.522 1244.45 631.522ZM1244.45 626.882C1246.34 626.882 1248.12 626.437 1249.78 625.548C1251.44 624.659 1252.78 623.325 1253.78 621.546C1254.83 619.767 1255.35 617.602 1255.35 615.05C1255.35 612.498 1254.85 610.333 1253.84 608.554C1252.84 606.775 1251.52 605.461 1249.9 604.61C1248.27 603.721 1246.51 603.276 1244.62 603.276C1242.69 603.276 1240.91 603.721 1239.28 604.61C1237.7 605.461 1236.42 606.775 1235.46 608.554C1234.49 610.333 1234.01 612.498 1234.01 615.05C1234.01 617.641 1234.47 619.825 1235.4 621.604C1236.36 623.383 1237.64 624.717 1239.23 625.606C1240.81 626.457 1242.55 626.882 1244.45 626.882ZM1272.96 588.08V631H1267.68V588.08H1272.96Z" fill="white"></path>
</g>
<defs>
<filter id="filter0_f_56_1920" x="-29" y="244.856" width="1978" height="864.144" filterUnits="userSpaceOnUse" color-interpolation-filters="sRGB">
<feFlood flood-opacity="0" result="BackgroundImageFix"></feFlood>
<feBlend mode="normal" in="SourceGraphic" in2="BackgroundImageFix" result="shape"></feBlend>
<feGaussianBlur stdDeviation="14.5" result="effect1_foregroundBlur_56_1920"></feGaussianBlur>
</filter>
<linearGradient id="paint0_linear_56_1920" x1="962.439" y1="279" x2="962.439" y2="1080" gradientUnits="userSpaceOnUse">
<stop stop-color="#60AEFB"></stop>
<stop offset="1" stop-color="#0680F9"></stop>
</linearGradient>
<clipPath id="clip0_56_1920">
<rect width="1920" height="1080" rx="70" fill="white"></rect>
</clipPath>
</defs>
</svg>
