<svg viewBox="0 0 26 24" fill="none" xmlns="http://www.w3.org/2000/svg">
<path d="M23.9474 19.7647C24.4745 19.765 24.9813 19.9745 25.3628 20.3498C25.7443 20.725 25.9713 21.2374 25.9966 21.7806C26.0219 22.3238 25.8437 22.8562 25.4989 23.2676C25.1541 23.6789 24.6691 23.9376 24.1444 23.9901L23.9474 24H2.05263C1.52549 23.9997 1.01866 23.7902 0.637155 23.415C0.25565 23.0397 0.0287204 22.5273 0.00338785 21.9841C-0.0219447 21.4409 0.156262 20.9085 0.501082 20.4971C0.845902 20.0858 1.3309 19.8271 1.85558 19.7746L2.05263 19.7647H23.9474ZM23.9474 9.88235C24.4918 9.88235 25.0139 10.1055 25.3988 10.5026C25.7837 10.8997 26 11.4384 26 12C26 12.5616 25.7837 13.1003 25.3988 13.4974C25.0139 13.8945 24.4918 14.1176 23.9474 14.1176H2.05263C1.50824 14.1176 0.986145 13.8945 0.601202 13.4974C0.216259 13.1003 0 12.5616 0 12C0 11.4384 0.216259 10.8997 0.601202 10.5026C0.986145 10.1055 1.50824 9.88235 2.05263 9.88235H23.9474ZM23.9474 0C24.4918 0 25.0139 0.223109 25.3988 0.620245C25.7837 1.01738 26 1.55601 26 2.11765C26 2.67928 25.7837 3.21791 25.3988 3.61505C25.0139 4.01219 24.4918 4.23529 23.9474 4.23529H2.05263C1.50824 4.23529 0.986145 4.01219 0.601202 3.61505C0.216259 3.21791 0 2.67928 0 2.11765C0 1.55601 0.216259 1.01738 0.601202 0.620245C0.986145 0.223109 1.50824 0 2.05263 0H23.9474Z" fill="rgb(170,117,255)"></path>
</svg>
